<?xml version="1.0" encoding="UTF-8" standalone="no"?>
<!DOCTYPE svg PUBLIC "-//W3C//DTD SVG 1.1//EN" "http://www.w3.org/Graphics/SVG/1.1/DTD/svg11.dtd">
<!-- Generated by Microsoft Visio, SVG Export Decryption.svg Decryption -->
<svg xmlns="http://www.w3.org/2000/svg" xmlns:xlink="http://www.w3.org/1999/xlink" xmlns:ev="http://www.w3.org/2001/xml-events"
		xmlns:v="http://schemas.microsoft.com/visio/2003/SVGExtensions/" width="10.7188in" height="6.03125in"
		viewBox="0 0 771.75 434.25" xml:space="preserve" color-interpolation-filters="sRGB" class="st28">
	<v:documentProperties v:langID="1033" v:viewMarkup="false">
		<v:userDefs>
			<v:ud v:nameU="msvSubprocessMaster" v:prompt="" v:val="VT4(Rectangle)"/>
			<v:ud v:nameU="msvNoAutoConnect" v:val="VT0(1):26"/>
			<v:ud v:nameU="msvWarnOnPersonalInfo" v:val="VT0(1):5"/>
		</v:userDefs>
	</v:documentProperties>

	<style type="text/css">
	<![CDATA[
		.st1 {visibility:visible}
		.st2 {fill:#5b9bd5;fill-opacity:0.22;filter:url(#filter_2);stroke:#5b9bd5;stroke-opacity:0.22}
		.st3 {fill:#bdd7ee;stroke:#c7c8c8;stroke-width:0.25}
		.st4 {fill:#e2b4da;stroke:#c7c8c8;stroke-width:0.25}
		.st5 {fill:#feffff;font-family:Calibri;font-size:0.833336em}
		.st6 {stroke:#ed7d31;stroke-dasharray:3,3;stroke-linecap:round;stroke-linejoin:round;stroke-width:1}
		.st7 {fill:#000000;font-family:Calibri;font-size:0.499992em}
		.st8 {fill:#f7cbac;stroke:#c7c8c8;stroke-width:0.25}
		.st9 {baseline-shift:-32.4949%;font-size:0.649897em}
		.st10 {fill:#a8d08d;stroke:#c7c8c8;stroke-width:0.25}
		.st11 {font-size:1em}
		.st12 {fill:#a5a5a5;stroke:#c7c8c8;stroke-width:0.25}
		.st13 {fill:#f4b183;stroke:#ffffff;stroke-width:0.75}
		.st14 {fill:#fee599;stroke:#ffffff;stroke-width:0.25}
		.st15 {fill:#000000;font-family:Calibri;font-size:0.666664em}
		.st16 {font-size:0.749991em}
		.st17 {baseline-shift:-24.3709%;font-size:0.487417em}
		.st18 {fill:#f4b183;stroke:#ffffff;stroke-width:0.25}
		.st19 {fill:#feffff;font-family:Calibri;font-size:0.666664em}
		.st20 {fill:#5b9bd5;stroke:#c7c8c8;stroke-width:0.25}
		.st21 {fill:#feffff;font-family:Calibri;font-size:0.499992em}
		.st22 {font-size:1.6667em}
		.st23 {baseline-shift:-54.1588%;font-size:1.08318em}
		.st24 {fill:#90aadb;stroke:#ffffff;stroke-width:0.75}
		.st25 {fill:#feffff;font-family:Calibri;font-size:0.75em}
		.st26 {font-size:0.666656em}
		.st27 {baseline-shift:-21.6629%;font-size:0.433258em}
		.st28 {fill:none;fill-rule:evenodd;font-size:12px;overflow:visible;stroke-linecap:square;stroke-miterlimit:3}
	]]>
	</style>

	<defs id="Filters">
		<filter id="filter_2">
			<feGaussianBlur stdDeviation="2"/>
		</filter>
	</defs>
	<g v:mID="4" v:index="2" v:groupContext="foregroundPage">
		<v:userDefs>
			<v:ud v:nameU="msvThemeOrder" v:val="VT0(0):26"/>
		</v:userDefs>
		<title>Decryption</title>
		<v:pageProperties v:drawingScale="1" v:pageScale="1" v:drawingUnits="0" v:shadowOffsetX="9" v:shadowOffsetY="-9"/>
		<v:layer v:name="Connector" v:index="0"/>
		<g id="shape16-1" v:mID="16" v:groupContext="shape" transform="translate(-251.221,398.902) rotate(-90)">
			<title>Chevron.16</title>
			<v:userDefs>
				<v:ud v:nameU="visVersion" v:prompt="" v:val="VT0(15):26"/>
			</v:userDefs>
			<g id="shadow16-2" v:groupContext="shadow" v:shadowOffsetX="0.345598" v:shadowOffsetY="-1.97279" v:shadowType="1"
					transform="matrix(1,0,0,1,-1.97279,0.345598)" class="st1">
				<path d="M0 434.25 L267 434.25 L279 425.25 L267 416.25 L0 416.25 L12 425.25 L0 434.25 Z" class="st2"/>
			</g>
			<path d="M0 434.25 L267 434.25 L279 425.25 L267 416.25 L0 416.25 L12 425.25 L0 434.25 Z" class="st3"/>
		</g>
		<g id="shape28-6" v:mID="28" v:groupContext="shape" transform="translate(93.0294,-90.8478)">
			<title>Chevron.28</title>
			<desc>Decrypt</desc>
			<v:userDefs>
				<v:ud v:nameU="visVersion" v:prompt="" v:val="VT0(15):26"/>
			</v:userDefs>
			<v:textBlock v:margins="rect(4,4,4,4)"/>
			<v:textRect cx="112.5" cy="425.25" width="225" height="18"/>
			<g id="shadow28-7" v:groupContext="shadow" v:shadowOffsetX="0.345598" v:shadowOffsetY="-1.97279" v:shadowType="1"
					transform="matrix(1,0,0,1,0.345598,1.97279)" class="st1">
				<path d="M0 434.25 L211.5 434.25 L225 425.25 L211.5 416.25 L0 416.25 L13.5 425.25 L0 434.25 Z" class="st2"/>
			</g>
			<path d="M0 434.25 L211.5 434.25 L225 425.25 L211.5 416.25 L0 416.25 L13.5 425.25 L0 434.25 Z" class="st4"/>
			<text x="96.51" y="428.25" class="st5" v:langID="1033"><v:paragraph v:horizAlign="1"/><v:tabList/>Decrypt</text>		</g>
		<g id="shape83-12" v:mID="83" v:groupContext="shape" transform="translate(131.279,374.902) rotate(-90)">
			<title>Chevron.83</title>
			<v:userDefs>
				<v:ud v:nameU="visVersion" v:prompt="" v:val="VT0(15):26"/>
			</v:userDefs>
			<g id="shadow83-13" v:groupContext="shadow" v:shadowOffsetX="0.345598" v:shadowOffsetY="-1.97279" v:shadowType="1"
					transform="matrix(1,0,0,1,-1.97279,0.345598)" class="st1">
				<path d="M0 434.25 L108 434.25 L117 429.79 L108 425.33 L0 425.33 L9 429.79 L0 434.25 Z" class="st2"/>
			</g>
			<path d="M0 434.25 L108 434.25 L117 429.79 L108 425.33 L0 425.33 L9 429.79 L0 434.25 Z" class="st3"/>
		</g>
		<g id="shape81-17" v:mID="81" v:groupContext="shape" transform="translate(104.238,356.902) rotate(-90)">
			<title>Chevron.81</title>
			<v:userDefs>
				<v:ud v:nameU="visVersion" v:prompt="" v:val="VT0(15):26"/>
			</v:userDefs>
			<g id="shadow81-18" v:groupContext="shadow" v:shadowOffsetX="0.345598" v:shadowOffsetY="-1.97279" v:shadowType="1"
					transform="matrix(1,0,0,1,-1.97279,0.345598)" class="st1">
				<path d="M0 434.25 L222.69 434.25 L231.38 429.79 L222.69 425.33 L0 425.33 L8.69 429.79 L0 434.25 Z" class="st2"/>
			</g>
			<path d="M0 434.25 L222.69 434.25 L231.38 429.79 L222.69 425.33 L0 425.33 L8.69 429.79 L0 434.25 Z" class="st3"/>
		</g>
		<g id="shape79-22" v:mID="79" v:groupContext="shape" transform="translate(462.029,-323.348)">
			<title>Chevron.79</title>
			<v:userDefs>
				<v:ud v:nameU="visVersion" v:prompt="" v:val="VT0(15):26"/>
			</v:userDefs>
			<g id="shadow79-23" v:groupContext="shadow" v:shadowOffsetX="0.345598" v:shadowOffsetY="-1.97279" v:shadowType="1"
					transform="matrix(1,0,0,1,0.345598,1.97279)" class="st1">
				<path d="M0 434.25 L25.2 434.25 L36 425.25 L25.2 416.25 L0 416.25 L10.8 425.25 L0 434.25 Z" class="st2"/>
			</g>
			<path d="M0 434.25 L25.2 434.25 L36 425.25 L25.2 416.25 L0 416.25 L10.8 425.25 L0 434.25 Z" class="st3"/>
		</g>
		<g id="shape78-27" v:mID="78" v:groupContext="shape" transform="translate(32.2794,338.902) rotate(-90)">
			<title>Chevron.78</title>
			<v:userDefs>
				<v:ud v:nameU="visVersion" v:prompt="" v:val="VT0(15):26"/>
			</v:userDefs>
			<g id="shadow78-28" v:groupContext="shadow" v:shadowOffsetX="0.345598" v:shadowOffsetY="-1.97279" v:shadowType="1"
					transform="matrix(1,0,0,1,-1.97279,0.345598)" class="st1">
				<path d="M0 434.25 L211.5 434.25 L219.75 429.75 L211.5 425.25 L0 425.25 L8.25 429.75 L0 434.25 Z" class="st2"/>
			</g>
			<path d="M0 434.25 L211.5 434.25 L219.75 429.75 L211.5 425.25 L0 425.25 L8.25 429.75 L0 434.25 Z" class="st3"/>
		</g>
		<g id="shape51-32" v:mID="51" v:groupContext="shape" v:layerMember="0" transform="translate(102.029,-279.848)">
			<title>Dynamic connector</title>
			<path d="M0 425.25 L216 425.25" class="st6"/>
		</g>
		<g id="shape52-35" v:mID="52" v:groupContext="shape" v:layerMember="0" transform="translate(102.779,-243.473)">
			<title>Dynamic connector.52</title>
			<path d="M0 425.25 L215.25 425.25" class="st6"/>
		</g>
		<g id="shape53-38" v:mID="53" v:groupContext="shape" v:layerMember="0" transform="translate(102.404,-171.848)">
			<title>Dynamic connector.53</title>
			<path d="M0 425.25 L215.63 425.25" class="st6"/>
		</g>
		<g id="shape54-41" v:mID="54" v:groupContext="shape" v:layerMember="0" transform="translate(102.779,-144.848)">
			<title>Dynamic connector.54</title>
			<path d="M0 425.25 L215.25 425.25" class="st6"/>
		</g>
		<g id="shape73-44" v:mID="73" v:groupContext="shape" transform="translate(180.779,-323.348)">
			<title>Chevron.73</title>
			<v:userDefs>
				<v:ud v:nameU="visVersion" v:prompt="" v:val="VT0(15):26"/>
			</v:userDefs>
			<g id="shadow73-45" v:groupContext="shadow" v:shadowOffsetX="0.345598" v:shadowOffsetY="-1.97279" v:shadowType="1"
					transform="matrix(1,0,0,1,0.345598,1.97279)" class="st1">
				<path d="M0 434.25 L22.5 434.25 L29.25 425.25 L22.5 416.25 L0 416.25 L6.75 425.25 L0 434.25 Z" class="st2"/>
			</g>
			<path d="M0 434.25 L22.5 434.25 L29.25 425.25 L22.5 416.25 L0 416.25 L6.75 425.25 L0 434.25 Z" class="st3"/>
		</g>
		<g id="shape37-49" v:mID="37" v:groupContext="shape" transform="translate(599.279,34.4022) rotate(90)">
			<title>Chevron.37</title>
			<v:userDefs>
				<v:ud v:nameU="visVersion" v:prompt="" v:val="VT0(15):26"/>
			</v:userDefs>
			<g id="shadow37-50" v:groupContext="shadow" v:shadowOffsetX="0.345598" v:shadowOffsetY="-1.97279" v:shadowType="1"
					transform="matrix(1,0,0,1,1.97279,-0.345598)" class="st1">
				<path d="M0 434.25 L36 434.25 L49.5 425.25 L36 416.25 L0 416.25 L13.5 425.25 L0 434.25 Z" class="st2"/>
			</g>
			<path d="M0 434.25 L36 434.25 L49.5 425.25 L36 416.25 L0 416.25 L13.5 425.25 L0 434.25 Z" class="st3"/>
		</g>
		<g id="shape33-54" v:mID="33" v:groupContext="shape" transform="translate(70.5294,-327.098)">
			<title>Chevron.33</title>
			<desc>Temporal File ID</desc>
			<v:userDefs>
				<v:ud v:nameU="visVersion" v:prompt="" v:val="VT0(15):26"/>
			</v:userDefs>
			<v:textBlock v:margins="rect(4,4,4,4)"/>
			<v:textRect cx="42.75" cy="429.75" width="85.5" height="9"/>
			<g id="shadow33-55" v:groupContext="shadow" v:shadowOffsetX="0.345598" v:shadowOffsetY="-1.97279" v:shadowType="1"
					transform="matrix(1,0,0,1,0.345598,1.97279)" class="st1">
				<path d="M0 434.25 L78.75 434.25 L85.5 429.75 L78.75 425.25 L0 425.25 L6.75 429.75 L0 434.25 Z" class="st2"/>
			</g>
			<path d="M0 434.25 L78.75 434.25 L85.5 429.75 L78.75 425.25 L0 425.25 L6.75 429.75 L0 434.25 Z" class="st3"/>
			<text x="41.73" y="431.55" class="st7" v:langID="1033"><v:paragraph v:horizAlign="2"/><v:tabList/>Temporal File ID</text>		</g>
		<g id="shape26-60" v:mID="26" v:groupContext="shape" transform="translate(-35.2206,311.902) rotate(-90)">
			<title>Chevron.26</title>
			<v:userDefs>
				<v:ud v:nameU="visVersion" v:prompt="" v:val="VT0(15):26"/>
			</v:userDefs>
			<g id="shadow26-61" v:groupContext="shadow" v:shadowOffsetX="0.345598" v:shadowOffsetY="-1.97279" v:shadowType="1"
					transform="matrix(1,0,0,1,-1.97279,0.345598)" class="st1">
				<path d="M0 434.25 L169.31 434.25 L189 389.25 L169.31 344.25 L0 344.25 L19.69 389.25 L0 434.25 Z" class="st2"/>
			</g>
			<path d="M0 434.25 L169.31 434.25 L189 389.25 L169.31 344.25 L0 344.25 L19.69 389.25 L0 434.25 Z" class="st8"/>
		</g>
		<g id="shape19-65" v:mID="19" v:groupContext="shape" transform="translate(341.313,-95.3478)">
			<title>Chevron.19</title>
			<desc>Ku</desc>
			<v:userDefs>
				<v:ud v:nameU="visVersion" v:prompt="" v:val="VT0(15):26"/>
			</v:userDefs>
			<v:textBlock v:margins="rect(4,4,4,4)"/>
			<v:textRect cx="62.6081" cy="429.75" width="125.22" height="9"/>
			<g id="shadow19-66" v:groupContext="shadow" v:shadowOffsetX="0.345598" v:shadowOffsetY="-1.97279" v:shadowType="1"
					transform="matrix(1,0,0,1,0.345598,1.97279)" class="st1">
				<path d="M0 434.25 L125.22 434.25 L125.22 429.75 L125.22 425.25 L0 425.25 L0 429.75 L0 434.25 Z" class="st2"/>
			</g>
			<path d="M0 434.25 L125.22 434.25 L125.22 429.75 L125.22 425.25 L0 425.25 L0 429.75 L0 434.25 Z" class="st3"/>
			<text x="116.05" y="431.55" class="st7" v:langID="1033"><v:paragraph v:horizAlign="2"/><v:tabList/>K<tspan
						dy="-0.284em" class="st9" v:baseFontSize="6">u</tspan></text>		</g>
		<g id="shape10-72" v:mID="10" v:groupContext="shape" transform="translate(455.279,147.652) rotate(90)">
			<title>Chevron.10</title>
			<v:userDefs>
				<v:ud v:nameU="visVersion" v:prompt="" v:val="VT0(15):26"/>
			</v:userDefs>
			<g id="shadow10-73" v:groupContext="shadow" v:shadowOffsetX="0.345598" v:shadowOffsetY="-1.97279" v:shadowType="1"
					transform="matrix(1,0,0,1,1.97279,-0.345598)" class="st1">
				<path d="M0 434.25 L197.53 434.25 L220.5 389.25 L197.53 344.25 L0 344.25 L22.97 389.25 L0 434.25 Z" class="st2"/>
			</g>
			<path d="M0 434.25 L197.53 434.25 L220.5 389.25 L197.53 344.25 L0 344.25 L22.97 389.25 L0 434.25 Z" class="st8"/>
		</g>
		<g id="shape2-77" v:mID="2" v:groupContext="shape" transform="translate(678.029,-108.848)">
			<title>Rectangle</title>
			<desc>Original File</desc>
			<v:userDefs>
				<v:ud v:nameU="visVersion" v:val="VT0(15):26"/>
			</v:userDefs>
			<v:textBlock v:margins="rect(4,4,4,4)"/>
			<v:textRect cx="36" cy="344.25" width="72" height="180"/>
			<g id="shadow2-78" v:groupContext="shadow" v:shadowOffsetX="0.345598" v:shadowOffsetY="-1.97279" v:shadowType="1"
					transform="matrix(1,0,0,1,0.345598,1.97279)" class="st1">
				<rect x="0" y="254.25" width="72" height="180" class="st2"/>
			</g>
			<rect x="0" y="254.25" width="72" height="180" class="st10"/>
			<text x="11.92" y="347.25" class="st5" v:langID="1033"><v:paragraph v:horizAlign="1"/><v:tabList/>Original File</text>		</g>
		<g id="shape8-83" v:mID="8" v:groupContext="shape" transform="translate(529.571,-176.348)">
			<title>Chevron</title>
			<desc>Join and Decrypt (“Unchunking”)</desc>
			<v:userDefs>
				<v:ud v:nameU="visVersion" v:prompt="" v:val="VT0(15):26"/>
			</v:userDefs>
			<v:textBlock v:margins="rect(4,4,4,4)"/>
			<v:textRect cx="74.25" cy="411.75" width="148.5" height="45"/>
			<g id="shadow8-84" v:groupContext="shadow" v:shadowOffsetX="0.345598" v:shadowOffsetY="-1.97279" v:shadowType="1"
					transform="matrix(1,0,0,1,0.345598,1.97279)" class="st1">
				<path d="M0 434.25 L126 434.25 L148.5 411.75 L126 389.25 L0 389.25 L22.5 411.75 L0 434.25 Z" class="st2"/>
			</g>
			<path d="M0 434.25 L126 434.25 L148.5 411.75 L126 389.25 L0 389.25 L22.5 411.75 L0 434.25 Z" class="st4"/>
			<text x="40.35" y="408.75" class="st5" v:langID="1033"><v:paragraph v:horizAlign="1"/><v:tabList/>Join and Decrypt<v:lf/><tspan
						x="42.8" dy="1.2em" class="st11">(“Unchunking”)</tspan></text>		</g>
		<g id="shape15-90" v:mID="15" v:groupContext="shape" transform="translate(444.029,-314.348)">
			<title>Circle</title>
			<desc>XOR</desc>
			<v:userDefs>
				<v:ud v:nameU="visVersion" v:val="VT0(15):26"/>
			</v:userDefs>
			<v:textBlock v:margins="rect(4,4,4,4)"/>
			<v:textRect cx="18" cy="416.25" width="31.5" height="27"/>
			<g id="shadow15-91" v:groupContext="shadow" v:shadowOffsetX="0.345598" v:shadowOffsetY="-1.97279" v:shadowType="1"
					transform="matrix(1,0,0,1,0.345598,1.97279)" class="st1">
				<path d="M0 416.25 A18 18 0 0 1 36 416.25 A18 18 0 1 1 0 416.25 Z" class="st2"/>
			</g>
			<path d="M0 416.25 A18 18 0 0 1 36 416.25 A18 18 0 1 1 0 416.25 Z" class="st12"/>
			<text x="9.38" y="419.25" class="st5" v:langID="1033"><v:paragraph v:horizAlign="1"/><v:tabList/>XOR</text>		</g>
		<g id="shape21-96" v:mID="21" v:groupContext="shape" transform="translate(318.029,-252.848)">
			<title>Rectangle.21</title>
			<desc>Encrypted Block #1</desc>
			<v:userDefs>
				<v:ud v:nameU="visVersion" v:val="VT0(15):26"/>
			</v:userDefs>
			<v:textBlock v:margins="rect(4,4,4,4)"/>
			<v:textRect cx="36" cy="416.25" width="72" height="36"/>
			<g id="shadow21-97" v:groupContext="shadow" v:shadowOffsetX="0.345598" v:shadowOffsetY="-1.97279" v:shadowType="1"
					transform="matrix(1,0,0,1,0.345598,1.97279)" class="st1">
				<rect x="0" y="398.25" width="72" height="36" class="st2"/>
			</g>
			<rect x="0" y="398.25" width="72" height="36" class="st13"/>
			<text x="15.39" y="413.25" class="st5" v:langID="1033"><v:paragraph v:horizAlign="1"/><v:tabList/>Encrypted<v:lf/><tspan
						x="18.95" dy="1.2em" class="st11">Block #1</tspan></text>		</g>
		<g id="shape22-103" v:mID="22" v:groupContext="shape" transform="translate(318.029,-180.848)">
			<title>Rectangle.22</title>
			<desc>Encrypted Block #2</desc>
			<v:userDefs>
				<v:ud v:nameU="visVersion" v:val="VT0(15):26"/>
			</v:userDefs>
			<v:textBlock v:margins="rect(4,4,4,4)"/>
			<v:textRect cx="36" cy="398.25" width="72" height="72"/>
			<g id="shadow22-104" v:groupContext="shadow" v:shadowOffsetX="0.345598" v:shadowOffsetY="-1.97279" v:shadowType="1"
					transform="matrix(1,0,0,1,0.345598,1.97279)" class="st1">
				<rect x="0" y="362.25" width="72" height="72" class="st2"/>
			</g>
			<rect x="0" y="362.25" width="72" height="72" class="st13"/>
			<text x="15.39" y="395.25" class="st5" v:langID="1033"><v:paragraph v:horizAlign="1"/><v:tabList/>Encrypted<v:lf/><tspan
						x="18.95" dy="1.2em" class="st11">Block #2</tspan></text>		</g>
		<g id="shape23-110" v:mID="23" v:groupContext="shape" transform="translate(318.029,-153.848)">
			<title>Rectangle.23</title>
			<desc>Encrypted Block #3</desc>
			<v:userDefs>
				<v:ud v:nameU="visVersion" v:val="VT0(15):26"/>
			</v:userDefs>
			<v:textBlock v:margins="rect(4,4,4,4)"/>
			<v:textRect cx="36" cy="420.75" width="72" height="27"/>
			<g id="shadow23-111" v:groupContext="shadow" v:shadowOffsetX="0.345598" v:shadowOffsetY="-1.97279" v:shadowType="1"
					transform="matrix(1,0,0,1,0.345598,1.97279)" class="st1">
				<rect x="0" y="407.25" width="72" height="27" class="st2"/>
			</g>
			<rect x="0" y="407.25" width="72" height="27" class="st13"/>
			<text x="15.39" y="417.75" class="st5" v:langID="1033"><v:paragraph v:horizAlign="1"/><v:tabList/>Encrypted<v:lf/><tspan
						x="18.95" dy="1.2em" class="st11">Block #3</tspan></text>		</g>
		<g id="shape24-117" v:mID="24" v:groupContext="shape" transform="translate(318.029,-108.848)">
			<title>Rectangle.24</title>
			<desc>Encrypted Block #4</desc>
			<v:userDefs>
				<v:ud v:nameU="visVersion" v:val="VT0(15):26"/>
			</v:userDefs>
			<v:textBlock v:margins="rect(4,4,4,4)"/>
			<v:textRect cx="36" cy="411.75" width="72" height="45"/>
			<g id="shadow24-118" v:groupContext="shadow" v:shadowOffsetX="0.345598" v:shadowOffsetY="-1.97279" v:shadowType="1"
					transform="matrix(1,0,0,1,0.345598,1.97279)" class="st1">
				<rect x="0" y="389.25" width="72" height="45" class="st2"/>
			</g>
			<rect x="0" y="389.25" width="72" height="45" class="st13"/>
			<text x="15.39" y="408.75" class="st5" v:langID="1033"><v:paragraph v:horizAlign="1"/><v:tabList/>Encrypted<v:lf/><tspan
						x="18.95" dy="1.2em" class="st11">Block #4</tspan></text>		</g>
		<g id="shape9-124" v:mID="9" v:groupContext="shape" transform="translate(318.029,-50.3478)">
			<title>Sheet.9</title>
			<desc>Manifest -KU -Ordered list of block SHA512&#39;s -Original file n...</desc>
			<v:textBlock v:margins="rect(4,4,4,4)"/>
			<v:textRect cx="36" cy="405" width="72" height="58.5"/>
			<g id="shadow9-125" v:groupContext="shadow" v:shadowOffsetX="0.345598" v:shadowOffsetY="-1.97279" v:shadowType="1"
					transform="matrix(1,0,0,1,0.345598,1.97279)" class="st1">
				<rect x="0" y="375.75" width="72" height="58.5" class="st2"/>
			</g>
			<rect x="0" y="375.75" width="72" height="58.5" class="st14"/>
			<text x="21.53" y="388.2" class="st15" v:langID="1033"><v:paragraph v:horizAlign="1"/><v:tabList/>Manifest<v:newlineChar/><v:paragraph/><v:lf/><tspan
						x="4" dy="2.5em" class="st16">-</tspan><tspan class="st16">K</tspan><tspan dy="-0.284em" class="st17"
						v:baseFontSize="6">U<v:newlineChar/></tspan><tspan x="4" dy="1.385em" class="st16">-</tspan><tspan
						class="st16">Ordered list of block </tspan><tspan x="4" dy="1.2em" class="st16">SHA512&#39;s<v:newlineChar/></tspan><tspan
						x="4" dy="1.5em" class="st16">-</tspan><tspan class="st16">Original file name</tspan></text>		</g>
		<g id="shape31-138" v:mID="31" v:groupContext="shape" transform="translate(156.029,-314.348)">
			<title>Circle.31</title>
			<desc>XOR</desc>
			<v:userDefs>
				<v:ud v:nameU="visVersion" v:val="VT0(15):26"/>
			</v:userDefs>
			<v:textBlock v:margins="rect(4,4,4,4)"/>
			<v:textRect cx="18" cy="416.25" width="31.5" height="27"/>
			<g id="shadow31-139" v:groupContext="shadow" v:shadowOffsetX="0.345598" v:shadowOffsetY="-1.97279" v:shadowType="1"
					transform="matrix(1,0,0,1,0.345598,1.97279)" class="st1">
				<path d="M0 416.25 A18 18 0 0 1 36 416.25 A18 18 0 1 1 0 416.25 Z" class="st2"/>
			</g>
			<path d="M0 416.25 A18 18 0 0 1 36 416.25 A18 18 0 1 1 0 416.25 Z" class="st12"/>
			<text x="9.38" y="419.25" class="st5" v:langID="1033"><v:paragraph v:horizAlign="1"/><v:tabList/>XOR</text>		</g>
		<g id="shape38-144" v:mID="38" v:groupContext="shape" transform="translate(30.0294,-252.848)">
			<title>Rectangle.38</title>
			<desc>Encrypted Block #1</desc>
			<v:userDefs>
				<v:ud v:nameU="visVersion" v:val="VT0(15):26"/>
			</v:userDefs>
			<v:textBlock v:margins="rect(4,4,4,4)"/>
			<v:textRect cx="36" cy="416.25" width="72" height="36"/>
			<g id="shadow38-145" v:groupContext="shadow" v:shadowOffsetX="0.345598" v:shadowOffsetY="-1.97279" v:shadowType="1"
					transform="matrix(1,0,0,1,0.345598,1.97279)" class="st1">
				<rect x="0" y="398.25" width="72" height="36" class="st2"/>
			</g>
			<rect x="0" y="398.25" width="72" height="36" class="st13"/>
			<text x="15.39" y="413.25" class="st5" v:langID="1033"><v:paragraph v:horizAlign="1"/><v:tabList/>Encrypted<v:lf/><tspan
						x="18.95" dy="1.2em" class="st11">Block #1</tspan></text>		</g>
		<g id="shape39-151" v:mID="39" v:groupContext="shape" transform="translate(30.0294,-180.848)">
			<title>Rectangle.39</title>
			<desc>Encrypted Block #2</desc>
			<v:userDefs>
				<v:ud v:nameU="visVersion" v:val="VT0(15):26"/>
			</v:userDefs>
			<v:textBlock v:margins="rect(4,4,4,4)"/>
			<v:textRect cx="36" cy="398.25" width="72" height="72"/>
			<g id="shadow39-152" v:groupContext="shadow" v:shadowOffsetX="0.345598" v:shadowOffsetY="-1.97279" v:shadowType="1"
					transform="matrix(1,0,0,1,0.345598,1.97279)" class="st1">
				<rect x="0" y="362.25" width="72" height="72" class="st2"/>
			</g>
			<rect x="0" y="362.25" width="72" height="72" class="st13"/>
			<text x="15.39" y="395.25" class="st5" v:langID="1033"><v:paragraph v:horizAlign="1"/><v:tabList/>Encrypted<v:lf/><tspan
						x="18.95" dy="1.2em" class="st11">Block #2</tspan></text>		</g>
		<g id="shape40-158" v:mID="40" v:groupContext="shape" transform="translate(30.0294,-153.848)">
			<title>Rectangle.40</title>
			<desc>Encrypted Block #3</desc>
			<v:userDefs>
				<v:ud v:nameU="visVersion" v:val="VT0(15):26"/>
			</v:userDefs>
			<v:textBlock v:margins="rect(4,4,4,4)"/>
			<v:textRect cx="36" cy="420.75" width="72" height="27"/>
			<g id="shadow40-159" v:groupContext="shadow" v:shadowOffsetX="0.345598" v:shadowOffsetY="-1.97279" v:shadowType="1"
					transform="matrix(1,0,0,1,0.345598,1.97279)" class="st1">
				<rect x="0" y="407.25" width="72" height="27" class="st2"/>
			</g>
			<rect x="0" y="407.25" width="72" height="27" class="st13"/>
			<text x="15.39" y="417.75" class="st5" v:langID="1033"><v:paragraph v:horizAlign="1"/><v:tabList/>Encrypted<v:lf/><tspan
						x="18.95" dy="1.2em" class="st11">Block #3</tspan></text>		</g>
		<g id="shape41-165" v:mID="41" v:groupContext="shape" transform="translate(30.0294,-108.848)">
			<title>Rectangle.41</title>
			<desc>Encrypted Block #4</desc>
			<v:userDefs>
				<v:ud v:nameU="visVersion" v:val="VT0(15):26"/>
			</v:userDefs>
			<v:textBlock v:margins="rect(4,4,4,4)"/>
			<v:textRect cx="36" cy="411.75" width="72" height="45"/>
			<g id="shadow41-166" v:groupContext="shadow" v:shadowOffsetX="0.345598" v:shadowOffsetY="-1.97279" v:shadowType="1"
					transform="matrix(1,0,0,1,0.345598,1.97279)" class="st1">
				<rect x="0" y="389.25" width="72" height="45" class="st2"/>
			</g>
			<rect x="0" y="389.25" width="72" height="45" class="st13"/>
			<text x="15.39" y="408.75" class="st5" v:langID="1033"><v:paragraph v:horizAlign="1"/><v:tabList/>Encrypted<v:lf/><tspan
						x="18.95" dy="1.2em" class="st11">Block #4</tspan></text>		</g>
		<g id="shape34-172" v:mID="34" v:groupContext="shape" transform="translate(30.0294,-90.8478)">
			<title>Sheet.34</title>
			<desc>Encrypted Manifest</desc>
			<v:textBlock v:margins="rect(4,4,4,4)"/>
			<v:textRect cx="36" cy="425.25" width="72" height="18"/>
			<g id="shadow34-173" v:groupContext="shadow" v:shadowOffsetX="0.345598" v:shadowOffsetY="-1.97279" v:shadowType="1"
					transform="matrix(1,0,0,1,0.345598,1.97279)" class="st1">
				<rect x="0" y="416.25" width="72" height="18" class="st2"/>
			</g>
			<rect x="0" y="416.25" width="72" height="18" class="st18"/>
			<text x="4.14" y="427.65" class="st19" v:langID="1033"><v:paragraph v:horizAlign="1"/><v:tabList/>Encrypted Manifest</text>		</g>
		<g id="shape67-178" v:mID="67" v:groupContext="shape" transform="translate(138.029,-366.848)">
			<title>Ellipse.67</title>
			<desc>Calculate previous Progressive Network Entropy from Timestamp...</desc>
			<v:userDefs>
				<v:ud v:nameU="visVersion" v:val="VT0(15):26"/>
			</v:userDefs>
			<v:textBlock v:margins="rect(4,4,4,4)"/>
			<v:textRect cx="36" cy="410.25" width="63" height="42"/>
			<g id="shadow67-179" v:groupContext="shadow" v:shadowOffsetX="0.345598" v:shadowOffsetY="-1.97279" v:shadowType="1"
					transform="matrix(1,0,0,1,0.345598,1.97279)" class="st1">
				<path d="M0 410.25 A36 24 0 0 1 72 410.25 A36 24 0 1 1 0 410.25 Z" class="st2"/>
			</g>
			<path d="M0 410.25 A36 24 0 0 1 72 410.25 A36 24 0 1 1 0 410.25 Z" class="st20"/>
			<text x="13.64" y="398.85" class="st21" v:langID="1033"><v:paragraph v:horizAlign="1"/><v:tabList/>Calculate previous <tspan
						x="10.74" dy="1.2em" class="st11">Progressive Network </tspan><tspan x="19.77" dy="1.2em" class="st11">Entropy from </tspan><tspan
						x="14.51" dy="1.8em" class="st11">Timestamp </tspan><tspan class="st22">(E</tspan><tspan dy="-0.284em"
						class="st23" v:baseFontSize="10">n</tspan><tspan dy="0.185em" class="st22">)</tspan></text>		</g>
		<g id="shape68-190" v:mID="68" v:groupContext="shape" transform="translate(-135.023,-282.46) rotate(-30)">
			<title>Chevron.68</title>
			<desc>Timestamp of En</desc>
			<v:userDefs>
				<v:ud v:nameU="visVersion" v:prompt="" v:val="VT0(15):26"/>
			</v:userDefs>
			<v:textBlock v:margins="rect(4,4,4,4)"/>
			<v:textRect cx="36" cy="429.75" width="72" height="9"/>
			<g id="shadow68-191" v:groupContext="shadow" v:shadowOffsetX="0.345598" v:shadowOffsetY="-1.97279" v:shadowType="1"
					transform="matrix(1,0,0,1,-0.687099,1.88129)" class="st1">
				<path d="M0 434.25 L65.25 434.25 L72 429.75 L65.25 425.25 L0 425.25 L6.75 429.75 L0 434.25 Z" class="st2"/>
			</g>
			<path d="M0 434.25 L65.25 434.25 L72 429.75 L65.25 425.25 L0 425.25 L6.75 429.75 L0 434.25 Z" class="st3"/>
			<text x="28.06" y="431.55" class="st7" v:langID="1033"><v:paragraph v:horizAlign="2"/><v:tabList/>Timestamp of E<tspan
						dy="-0.284em" class="st9" v:baseFontSize="6">n</tspan></text>		</g>
		<g id="shape42-197" v:mID="42" v:groupContext="shape" transform="translate(30.0294,-302.348)">
			<title>Rectangle.42</title>
			<desc>Resource Record -Temporal File ID -Timestamp of En -Unordered...</desc>
			<v:userDefs>
				<v:ud v:nameU="visVersion" v:val="VT0(15):26"/>
			</v:userDefs>
			<v:textBlock v:margins="rect(4,4,4,4)"/>
			<v:textRect cx="36" cy="405" width="72" height="58.5"/>
			<g id="shadow42-198" v:groupContext="shadow" v:shadowOffsetX="0.345598" v:shadowOffsetY="-1.97279" v:shadowType="1"
					transform="matrix(1,0,0,1,0.345598,1.97279)" class="st1">
				<rect x="0" y="375.75" width="72" height="58.5" class="st2"/>
			</g>
			<rect x="0" y="375.75" width="72" height="58.5" class="st24"/>
			<text x="5.2" y="389.7" class="st25" v:langID="1033"><v:paragraph v:horizAlign="1"/><v:tabList/>Resource Record<v:newlineChar/><v:paragraph/><v:lf/><tspan
						x="4" dy="2.55em" class="st26">-</tspan><tspan class="st26">Temporal File ID<v:newlineChar/></tspan><tspan
						x="4" dy="1.2em" class="st26">-</tspan><tspan class="st26">Timestamp of E</tspan><tspan dy="-0.284em"
						class="st27" v:baseFontSize="6">n<v:newlineChar/></tspan><tspan x="4" dy="1.385em" class="st26">-</tspan><tspan
						class="st26">Unordered list of block </tspan><tspan x="4" dy="1.2em" class="st26">SHA512&#39;s</tspan></text>		</g>
		<g id="shape70-211" v:mID="70" v:groupContext="shape" transform="translate(97.1544,-35.3478)">
			<title>Chevron.70</title>
			<v:userDefs>
				<v:ud v:nameU="visVersion" v:prompt="" v:val="VT0(15):26"/>
			</v:userDefs>
			<g id="shadow70-212" v:groupContext="shadow" v:shadowOffsetX="0.345598" v:shadowOffsetY="-1.97279" v:shadowType="1"
					transform="matrix(1,0,0,1,0.345598,1.97279)" class="st1">
				<path d="M0 434.25 L85.5 434.25 L85.5 425.25 L85.5 416.25 L0 416.25 L0 425.25 L0 434.25 Z" class="st2"/>
			</g>
			<path d="M0 434.25 L85.5 434.25 L85.5 425.25 L85.5 416.25 L0 416.25 L0 425.25 L0 434.25 Z" class="st3"/>
		</g>
		<g id="shape69-216" v:mID="69" v:groupContext="shape" transform="translate(21.0294,-23.3478)">
			<title>Ellipse.69</title>
			<desc>Hash first 16 bytes of each encrypted block, XOR together</desc>
			<v:userDefs>
				<v:ud v:nameU="visVersion" v:val="VT0(15):26"/>
			</v:userDefs>
			<v:textBlock v:margins="rect(4,4,4,4)"/>
			<v:textRect cx="45" cy="413.25" width="78.75" height="36.75"/>
			<g id="shadow69-217" v:groupContext="shadow" v:shadowOffsetX="0.345598" v:shadowOffsetY="-1.97279" v:shadowType="1"
					transform="matrix(1,0,0,1,0.345598,1.97279)" class="st1">
				<path d="M0 413.25 A45 21 0 0 1 90 413.25 A45 21 0 1 1 0 413.25 Z" class="st2"/>
			</g>
			<path d="M0 413.25 A45 21 0 0 1 90 413.25 A45 21 0 1 1 0 413.25 Z" class="st12"/>
			<text x="12.81" y="407.85" class="st21" v:langID="1033"><v:paragraph v:horizAlign="1"/><v:tabList/>Hash first 16 bytes of each <tspan
						x="18.85" dy="1.2em" class="st11">encrypted block, XOR </tspan><tspan x="34.39" dy="1.2em" class="st11">together</tspan></text>		</g>
		<g id="shape71-224" v:mID="71" v:groupContext="shape" transform="translate(498.029,-308.348)">
			<title>Ellipse.71</title>
			<desc>Recover symmetric file encryption key (Kf)</desc>
			<v:userDefs>
				<v:ud v:nameU="visVersion" v:val="VT0(15):26"/>
			</v:userDefs>
			<v:textBlock v:margins="rect(4,4,4,4)"/>
			<v:textRect cx="36" cy="410.25" width="63" height="42"/>
			<g id="shadow71-225" v:groupContext="shadow" v:shadowOffsetX="0.345598" v:shadowOffsetY="-1.97279" v:shadowType="1"
					transform="matrix(1,0,0,1,0.345598,1.97279)" class="st1">
				<path d="M0 410.25 A36 24 0 0 1 72 410.25 A36 24 0 1 1 0 410.25 Z" class="st2"/>
			</g>
			<path d="M0 410.25 A36 24 0 0 1 72 410.25 A36 24 0 1 1 0 410.25 Z" class="st20"/>
			<text x="12.63" y="402.45" class="st21" v:langID="1033"><v:paragraph v:horizAlign="1"/><v:tabList/>Recover symmetric <tspan
						x="13.48" dy="1.2em" class="st11">file encryption key </tspan><tspan x="29.38" dy="1.08em" class="st22">(K</tspan><tspan
						dy="-0.284em" class="st23" v:baseFontSize="10">f</tspan><tspan dy="0.185em" class="st22">)</tspan></text>		</g>
		<g id="shape76-234" v:mID="76" v:groupContext="shape" transform="translate(671.279,110.902) rotate(90)">
			<title>Chevron.76</title>
			<v:userDefs>
				<v:ud v:nameU="visVersion" v:prompt="" v:val="VT0(15):26"/>
			</v:userDefs>
			<g id="shadow76-235" v:groupContext="shadow" v:shadowOffsetX="0.345598" v:shadowOffsetY="-1.97279" v:shadowType="1"
					transform="matrix(1,0,0,1,1.97279,-0.345598)" class="st1">
				<path d="M0 434.25 L205.27 434.25 L214.5 425.25 L205.27 416.25 L0 416.25 L9.23 425.25 L0 434.25 Z" class="st2"/>
			</g>
			<path d="M0 434.25 L205.27 434.25 L214.5 425.25 L205.27 416.25 L0 416.25 L9.23 425.25 L0 434.25 Z" class="st3"/>
		</g>
		<g id="shape72-239" v:mID="72" v:groupContext="shape" transform="translate(210.029,-307.598)">
			<title>Ellipse.72</title>
			<desc>Recover symmetric manifest encryption key (Km)</desc>
			<v:userDefs>
				<v:ud v:nameU="visVersion" v:val="VT0(15):26"/>
			</v:userDefs>
			<v:textBlock v:margins="rect(4,4,4,4)"/>
			<v:textRect cx="36" cy="410.25" width="63" height="42"/>
			<g id="shadow72-240" v:groupContext="shadow" v:shadowOffsetX="0.345598" v:shadowOffsetY="-1.97279" v:shadowType="1"
					transform="matrix(1,0,0,1,0.345598,1.97279)" class="st1">
				<path d="M0 410.25 A36 24 0 0 1 72 410.25 A36 24 0 1 1 0 410.25 Z" class="st2"/>
			</g>
			<path d="M0 410.25 A36 24 0 0 1 72 410.25 A36 24 0 1 1 0 410.25 Z" class="st20"/>
			<text x="12.63" y="402.45" class="st21" v:langID="1033"><v:paragraph v:horizAlign="1"/><v:tabList/>Recover symmetric <tspan
						x="11.47" dy="1.2em" class="st11">manifest encryption </tspan><tspan x="22.88" dy="1.8em" class="st11">key </tspan><tspan
						class="st22">(K</tspan><tspan dy="-0.284em" class="st23" v:baseFontSize="10">m</tspan><tspan dy="0.185em"
						class="st22">)</tspan></text>		</g>
		<g id="shape77-250" v:mID="77" v:groupContext="shape" transform="translate(377.176,-323.348)">
			<title>Chevron.77</title>
			<v:userDefs>
				<v:ud v:nameU="visVersion" v:prompt="" v:val="VT0(15):26"/>
			</v:userDefs>
			<g id="shadow77-251" v:groupContext="shadow" v:shadowOffsetX="0.345598" v:shadowOffsetY="-1.97279" v:shadowType="1"
					transform="matrix(1,0,0,1,0.345598,1.97279)" class="st1">
				<path d="M0 434.25 L53.35 434.25 L66.85 425.25 L53.35 416.25 L0 416.25 L13.5 425.25 L0 434.25 Z" class="st2"/>
			</g>
			<path d="M0 434.25 L53.35 434.25 L66.85 425.25 L53.35 416.25 L0 416.25 L13.5 425.25 L0 434.25 Z" class="st3"/>
		</g>
		<g id="shape27-255" v:mID="27" v:groupContext="shape" transform="translate(309.029,-311.348)">
			<title>Ellipse.27</title>
			<desc>Hash last 16 bytes of each encrypted block, XOR together</desc>
			<v:userDefs>
				<v:ud v:nameU="visVersion" v:val="VT0(15):26"/>
			</v:userDefs>
			<v:textBlock v:margins="rect(4,4,4,4)"/>
			<v:textRect cx="45" cy="413.25" width="78.75" height="36.75"/>
			<g id="shadow27-256" v:groupContext="shadow" v:shadowOffsetX="0.345598" v:shadowOffsetY="-1.97279" v:shadowType="1"
					transform="matrix(1,0,0,1,0.345598,1.97279)" class="st1">
				<path d="M0 413.25 A45 21 0 0 1 90 413.25 A45 21 0 1 1 0 413.25 Z" class="st2"/>
			</g>
			<path d="M0 413.25 A45 21 0 0 1 90 413.25 A45 21 0 1 1 0 413.25 Z" class="st12"/>
			<text x="13.33" y="407.85" class="st21" v:langID="1033"><v:paragraph v:horizAlign="1"/><v:tabList/>Hash last 16 bytes of each <tspan
						x="18.85" dy="1.2em" class="st11">encrypted block, XOR </tspan><tspan x="34.39" dy="1.2em" class="st11">together</tspan></text>		</g>
		<g id="shape80-263" v:mID="80" v:groupContext="shape" transform="translate(390.421,-77.3478)">
			<title>Chevron.80</title>
			<desc>Ordering and SHA hash verification</desc>
			<v:userDefs>
				<v:ud v:nameU="visVersion" v:prompt="" v:val="VT0(15):26"/>
			</v:userDefs>
			<v:textBlock v:margins="rect(4,4,4,4)"/>
			<v:textRect cx="74.0334" cy="429.75" width="148.07" height="9"/>
			<g id="shadow80-264" v:groupContext="shadow" v:shadowOffsetX="0.345598" v:shadowOffsetY="-1.97279" v:shadowType="1"
					transform="matrix(1,0,0,1,0.345598,1.97279)" class="st1">
				<path d="M0 434.25 L148.07 434.25 L148.07 429.75 L148.07 425.25 L0 425.25 L0 429.75 L0 434.25 Z" class="st2"/>
			</g>
			<path d="M0 434.25 L148.07 434.25 L148.07 429.75 L148.07 425.25 L0 425.25 L0 429.75 L0 434.25 Z" class="st3"/>
			<text x="58.84" y="431.55" class="st7" v:langID="1033"><v:paragraph v:horizAlign="2"/><v:tabList/>Ordering and SHA hash verification</text>		</g>
		<g id="shape82-269" v:mID="82" v:groupContext="shape" transform="translate(389.988,-59.3478)">
			<title>Chevron.82</title>
			<desc>Original file name / metadata file properties</desc>
			<v:userDefs>
				<v:ud v:nameU="visVersion" v:prompt="" v:val="VT0(15):26"/>
			</v:userDefs>
			<v:textBlock v:margins="rect(4,4,4,4)"/>
			<v:textRect cx="87.7707" cy="429.75" width="175.55" height="9"/>
			<g id="shadow82-270" v:groupContext="shadow" v:shadowOffsetX="0.345598" v:shadowOffsetY="-1.97279" v:shadowType="1"
					transform="matrix(1,0,0,1,0.345598,1.97279)" class="st1">
				<path d="M0 434.25 L175.54 434.25 L175.54 429.75 L175.54 425.25 L0 425.25 L0 429.75 L0 434.25 Z" class="st2"/>
			</g>
			<path d="M0 434.25 L175.54 434.25 L175.54 429.75 L175.54 425.25 L0 425.25 L0 429.75 L0 434.25 Z" class="st3"/>
			<text x="64.17" y="431.55" class="st7" v:langID="1033"><v:paragraph v:horizAlign="2"/><v:tabList/>Original file name / metadata file properties</text>		</g>
	</g>
</svg>
