<?xml version="1.0" encoding="UTF-8" standalone="no"?>
<!DOCTYPE svg PUBLIC "-//W3C//DTD SVG 1.1//EN" "http://www.w3.org/Graphics/SVG/1.1/DTD/svg11.dtd">
<!-- Generated by Microsoft Visio, SVG Export Encryption.svg Encryption -->
<svg xmlns="http://www.w3.org/2000/svg" xmlns:xlink="http://www.w3.org/1999/xlink" xmlns:ev="http://www.w3.org/2001/xml-events"
		xmlns:v="http://schemas.microsoft.com/visio/2003/SVGExtensions/" width="11.9262in" height="6.71222in"
		viewBox="0 0 858.684 483.28" xml:space="preserve" color-interpolation-filters="sRGB" class="st33">
	<v:documentProperties v:langID="1033" v:viewMarkup="false">
		<v:userDefs>
			<v:ud v:nameU="msvSubprocessMaster" v:prompt="" v:val="VT4(Rectangle)"/>
			<v:ud v:nameU="msvNoAutoConnect" v:val="VT0(1):26"/>
			<v:ud v:nameU="msvWarnOnPersonalInfo" v:val="VT0(1):5"/>
		</v:userDefs>
	</v:documentProperties>

	<style type="text/css">
	<![CDATA[
		.st1 {visibility:visible}
		.st2 {fill:#5b9bd5;fill-opacity:0.22;filter:url(#filter_2);stroke:#5b9bd5;stroke-opacity:0.22}
		.st3 {fill:#bdd7ee;stroke:#c7c8c8;stroke-width:0.25}
		.st4 {fill:none;filter:url(#filter_2);stroke:#5b9bd5;stroke-opacity:0.22}
		.st5 {fill:#5b9bd5;filter:url(#filter_2);font-family:Calibri;font-size:0.666664em;opacity:0.219608}
		.st6 {font-size:1em}
		.st7 {fill:none;stroke:#7f7f7f;stroke-width:1}
		.st8 {fill:#000000;font-family:Calibri;font-size:0.666664em}
		.st9 {fill:#000000;font-family:Calibri;font-size:0.499992em}
		.st10 {baseline-shift:-32.4949%;font-size:0.649897em}
		.st11 {fill:#f7cbac;stroke:#c7c8c8;stroke-width:0.25}
		.st12 {fill:#a8d08d;stroke:#c7c8c8;stroke-width:0.25}
		.st13 {fill:#feffff;font-family:Calibri;font-size:0.833336em}
		.st14 {fill:#f4b183;stroke:#ffffff;stroke-width:0.75}
		.st15 {fill:#e2b4da;stroke:#c7c8c8;stroke-width:0.25}
		.st16 {fill:#a5a5a5;stroke:#c7c8c8;stroke-width:0.25}
		.st17 {fill:#feffff;font-family:Calibri;font-size:0.499992em}
		.st18 {fill:#5b9bd5;stroke:#c7c8c8;stroke-width:0.25}
		.st19 {font-size:1.6667em}
		.st20 {baseline-shift:-54.1588%;font-size:1.08318em}
		.st21 {fill:#fee599;stroke:#ffffff;stroke-width:0.25}
		.st22 {font-size:0.749991em}
		.st23 {baseline-shift:-24.3709%;font-size:0.487417em}
		.st24 {fill:#f4b183;stroke:#ffffff;stroke-width:0.25}
		.st25 {fill:#feffff;font-family:Calibri;font-size:0.666664em}
		.st26 {fill:#90aadb;stroke:#ffffff;stroke-width:0.75}
		.st27 {fill:#feffff;font-family:Calibri;font-size:0.75em}
		.st28 {font-size:0.666656em}
		.st29 {baseline-shift:-21.6629%;font-size:0.433258em}
		.st30 {baseline-shift:-32.4939%;font-size:0.649878em}
		.st31 {stroke:#ed7d31;stroke-dasharray:3,3;stroke-linecap:round;stroke-linejoin:round;stroke-width:1}
		.st32 {fill:#fbe5d5;stroke:#c7c8c8;stroke-width:0.25}
		.st33 {fill:none;fill-rule:evenodd;font-size:12px;overflow:visible;stroke-linecap:square;stroke-miterlimit:3}
	]]>
	</style>

	<defs id="Filters">
		<filter id="filter_2">
			<feGaussianBlur stdDeviation="2"/>
		</filter>
	</defs>
	<g v:mID="0" v:index="1" v:groupContext="foregroundPage">
		<v:userDefs>
			<v:ud v:nameU="msvThemeOrder" v:val="VT0(0):26"/>
		</v:userDefs>
		<title>Encryption</title>
		<v:pageProperties v:drawingScale="1" v:pageScale="1" v:drawingUnits="0" v:shadowOffsetX="9" v:shadowOffsetY="-9"/>
		<v:layer v:name="Connector" v:index="0"/>
		<g id="shape50-1" v:mID="50" v:groupContext="shape" transform="translate(675.309,383.307) rotate(90)">
			<title>Chevron.50</title>
			<v:userDefs>
				<v:ud v:nameU="visVersion" v:prompt="" v:val="VT0(15):26"/>
			</v:userDefs>
			<g id="shadow50-2" v:groupContext="shadow" v:shadowOffsetX="0.345598" v:shadowOffsetY="-1.97279" v:shadowType="1"
					transform="matrix(1,0,0,1,1.97279,-0.345598)" class="st1">
				<path d="M0 483.28 L17.31 483.28 L22.5 474.28 L17.31 465.28 L0 465.28 L5.19 474.28 L0 483.28 Z" class="st2"/>
			</g>
			<path d="M0 483.28 L17.31 483.28 L22.5 474.28 L17.31 465.28 L0 465.28 L5.19 474.28 L0 483.28 Z" class="st3"/>
		</g>
		<g id="shape49-6" v:mID="49" v:groupContext="shape" transform="translate(248.279,847.087) rotate(180)">
			<title>Chevron.49</title>
			<v:userDefs>
				<v:ud v:nameU="visVersion" v:prompt="" v:val="VT0(15):26"/>
			</v:userDefs>
			<g id="shadow49-7" v:groupContext="shadow" v:shadowOffsetX="0.345598" v:shadowOffsetY="-1.97279" v:shadowType="1"
					transform="matrix(1,0,0,1,-0.345598,-1.97279)" class="st1">
				<path d="M0 483.28 L22.5 483.28 L29.25 474.28 L22.5 465.28 L0 465.28 L6.75 474.28 L0 483.28 Z" class="st2"/>
			</g>
			<path d="M0 483.28 L22.5 483.28 L29.25 474.28 L22.5 465.28 L0 465.28 L6.75 474.28 L0 483.28 Z" class="st3"/>
		</g>
		<g id="shape45-11" v:mID="45" v:groupContext="shape" transform="translate(97.5294,-23.4728)">
			<title>Sheet.45</title>
			<desc>Process ensures all pieces of content are required to sample ...</desc>
			<v:textBlock v:margins="rect(4,4,4,4)" v:verticalAlign="0"/>
			<v:textRect cx="195.75" cy="321.28" width="391.5" height="324"/>
			<g id="shadow45-12" v:groupContext="shadow" v:shadowOffsetX="0.345598" v:shadowOffsetY="-1.97279" v:shadowType="1"
					transform="matrix(1,0,0,1,0.345598,1.97279)" class="st1">
				<rect x="0" y="159.28" width="391.5" height="324" class="st4"/>
				<text x="4" y="170.48" class="st5" v:langID="1033"><v:paragraph/><v:tabList/>Process ensures all pieces of<v:lf/><tspan
							x="4" dy="1.2em" class="st6">content are required to<v:lf/></tspan><tspan x="4" dy="1.2em" class="st6">sample any part of content</tspan></text>			</g>
			<rect x="0" y="159.28" width="391.5" height="324" class="st7"/>
			<text x="4" y="170.48" class="st8" v:langID="1033"><v:paragraph/><v:tabList/>Process ensures all pieces of<v:lf/><tspan
						x="4" dy="1.2em" class="st6">content are required to<v:lf/></tspan><tspan x="4" dy="1.2em" class="st6">sample any part of content</tspan></text>		</g>
		<g id="shape44-23" v:mID="44" v:groupContext="shape" transform="translate(811.669,-367.931) rotate(30)">
			<title>Chevron.44</title>
			<desc>Timestamp of En</desc>
			<v:userDefs>
				<v:ud v:nameU="visVersion" v:prompt="" v:val="VT0(15):26"/>
			</v:userDefs>
			<v:textBlock v:margins="rect(4,4,4,4)"/>
			<v:textRect cx="36" cy="478.78" width="72" height="9"/>
			<g id="shadow44-24" v:groupContext="shadow" v:shadowOffsetX="0.345598" v:shadowOffsetY="-1.97279" v:shadowType="1"
					transform="matrix(1,0,0,1,1.28569,1.53569)" class="st1">
				<path d="M0 483.28 L65.25 483.28 L72 478.78 L65.25 474.28 L0 474.28 L6.75 478.78 L0 483.28 Z" class="st2"/>
			</g>
			<path d="M0 483.28 L65.25 483.28 L72 478.78 L65.25 474.28 L0 474.28 L6.75 478.78 L0 483.28 Z" class="st3"/>
			<text x="28.06" y="480.58" class="st9" v:langID="1033"><v:paragraph v:horizAlign="2"/><v:tabList/>Timestamp of E<tspan
						dy="-0.284em" class="st10" v:baseFontSize="6">n</tspan></text>		</g>
		<g id="shape43-30" v:mID="43" v:groupContext="shape" transform="translate(561.029,-368.473)">
			<title>Chevron.43</title>
			<desc>Temporal File ID</desc>
			<v:userDefs>
				<v:ud v:nameU="visVersion" v:prompt="" v:val="VT0(15):26"/>
			</v:userDefs>
			<v:textBlock v:margins="rect(4,4,4,4)"/>
			<v:textRect cx="36" cy="478.78" width="72" height="9"/>
			<g id="shadow43-31" v:groupContext="shadow" v:shadowOffsetX="0.345598" v:shadowOffsetY="-1.97279" v:shadowType="1"
					transform="matrix(1,0,0,1,0.345598,1.97279)" class="st1">
				<path d="M0 483.28 L65.25 483.28 L72 478.78 L65.25 474.28 L0 474.28 L6.75 478.78 L0 483.28 Z" class="st2"/>
			</g>
			<path d="M0 483.28 L65.25 483.28 L72 478.78 L65.25 474.28 L0 474.28 L6.75 478.78 L0 483.28 Z" class="st3"/>
			<text x="28.23" y="480.58" class="st9" v:langID="1033"><v:paragraph v:horizAlign="2"/><v:tabList/>Temporal File ID      </text>		</g>
		<g id="shape37-36" v:mID="37" v:groupContext="shape" transform="translate(1035.31,42.8072) rotate(90)">
			<title>Chevron.37</title>
			<v:userDefs>
				<v:ud v:nameU="visVersion" v:prompt="" v:val="VT0(15):26"/>
			</v:userDefs>
			<g id="shadow37-37" v:groupContext="shadow" v:shadowOffsetX="0.345598" v:shadowOffsetY="-1.97279" v:shadowType="1"
					transform="matrix(1,0,0,1,1.97279,-0.345598)" class="st1">
				<path d="M0 483.28 L36 483.28 L49.5 474.28 L36 465.28 L0 465.28 L13.5 474.28 L0 483.28 Z" class="st2"/>
			</g>
			<path d="M0 483.28 L36 483.28 L49.5 474.28 L36 465.28 L0 465.28 L13.5 474.28 L0 483.28 Z" class="st3"/>
		</g>
		<g id="shape33-41" v:mID="33" v:groupContext="shape" transform="translate(484.529,-363.973)">
			<title>Chevron.33</title>
			<v:userDefs>
				<v:ud v:nameU="visVersion" v:prompt="" v:val="VT0(15):26"/>
			</v:userDefs>
			<g id="shadow33-42" v:groupContext="shadow" v:shadowOffsetX="0.345598" v:shadowOffsetY="-1.97279" v:shadowType="1"
					transform="matrix(1,0,0,1,0.345598,1.97279)" class="st1">
				<path d="M0 483.28 L45 483.28 L58.5 474.28 L45 465.28 L0 465.28 L13.5 474.28 L0 483.28 Z" class="st2"/>
			</g>
			<path d="M0 483.28 L45 483.28 L58.5 474.28 L45 465.28 L0 465.28 L13.5 474.28 L0 483.28 Z" class="st3"/>
		</g>
		<g id="shape29-46" v:mID="29" v:groupContext="shape" transform="translate(1035.31,297.807) rotate(90)">
			<title>Chevron.29</title>
			<v:userDefs>
				<v:ud v:nameU="visVersion" v:prompt="" v:val="VT0(15):26"/>
			</v:userDefs>
			<g id="shadow29-47" v:groupContext="shadow" v:shadowOffsetX="0.345598" v:shadowOffsetY="-1.97279" v:shadowType="1"
					transform="matrix(1,0,0,1,1.97279,-0.345598)" class="st1">
				<path d="M0 483.28 L27 483.28 L36 474.28 L27 465.28 L0 465.28 L9 474.28 L0 483.28 Z" class="st2"/>
			</g>
			<path d="M0 483.28 L27 483.28 L36 474.28 L27 465.28 L0 465.28 L9 474.28 L0 483.28 Z" class="st3"/>
		</g>
		<g id="shape26-51" v:mID="26" v:groupContext="shape" transform="translate(14.7494,320.307) rotate(-90)">
			<title>Chevron.26</title>
			<v:userDefs>
				<v:ud v:nameU="visVersion" v:prompt="" v:val="VT0(15):26"/>
			</v:userDefs>
			<g id="shadow26-52" v:groupContext="shadow" v:shadowOffsetX="0.345598" v:shadowOffsetY="-1.97279" v:shadowType="1"
					transform="matrix(1,0,0,1,-1.97279,0.345598)" class="st1">
				<path d="M0 483.28 L169.31 483.28 L189 438.28 L169.31 393.28 L0 393.28 L19.69 438.28 L0 483.28 Z" class="st2"/>
			</g>
			<path d="M0 483.28 L169.31 483.28 L189 438.28 L169.31 393.28 L0 393.28 L19.69 438.28 L0 483.28 Z" class="st11"/>
		</g>
		<g id="shape19-56" v:mID="19" v:groupContext="shape" transform="translate(78.2767,-25.8302) rotate(-15)">
			<title>Chevron.19</title>
			<desc>Ku</desc>
			<v:userDefs>
				<v:ud v:nameU="visVersion" v:prompt="" v:val="VT0(15):26"/>
			</v:userDefs>
			<v:textBlock v:margins="rect(4,4,4,4)"/>
			<v:textRect cx="111.716" cy="478.78" width="223.44" height="9"/>
			<g id="shadow19-57" v:groupContext="shadow" v:shadowOffsetX="0.345598" v:shadowOffsetY="-1.97279" v:shadowType="1"
					transform="matrix(1,0,0,1,-0.176774,1.99502)" class="st1">
				<path d="M0 483.28 L214.95 483.28 L223.43 478.78 L214.95 474.28 L0 474.28 L8.48 478.78 L0 483.28 Z" class="st2"/>
			</g>
			<path d="M0 483.28 L214.95 483.28 L223.43 478.78 L214.95 474.28 L0 474.28 L8.48 478.78 L0 483.28 Z" class="st3"/>
			<text x="109.13" y="480.58" class="st9" v:langID="1033"><v:paragraph v:horizAlign="1"/><v:tabList/>K<tspan
						dy="-0.284em" class="st10" v:baseFontSize="6">u</tspan></text>		</g>
		<g id="shape17-63" v:mID="17" v:groupContext="shape" transform="translate(153.779,-101.473)">
			<title>Chevron.17</title>
			<v:userDefs>
				<v:ud v:nameU="visVersion" v:prompt="" v:val="VT0(15):26"/>
			</v:userDefs>
			<g id="shadow17-64" v:groupContext="shadow" v:shadowOffsetX="0.345598" v:shadowOffsetY="-1.97279" v:shadowType="1"
					transform="matrix(1,0,0,1,0.345598,1.97279)" class="st1">
				<path d="M0 483.28 L22.5 483.28 L29.25 474.28 L22.5 465.28 L0 465.28 L6.75 474.28 L0 483.28 Z" class="st2"/>
			</g>
			<path d="M0 483.28 L22.5 483.28 L29.25 474.28 L22.5 465.28 L0 465.28 L6.75 474.28 L0 483.28 Z" class="st3"/>
		</g>
		<g id="shape16-68" v:mID="16" v:groupContext="shape" transform="translate(-336.251,365.307) rotate(-90)">
			<title>Chevron.16</title>
			<v:userDefs>
				<v:ud v:nameU="visVersion" v:prompt="" v:val="VT0(15):26"/>
			</v:userDefs>
			<g id="shadow16-69" v:groupContext="shadow" v:shadowOffsetX="0.345598" v:shadowOffsetY="-1.97279" v:shadowType="1"
					transform="matrix(1,0,0,1,-1.97279,0.345598)" class="st1">
				<path d="M0 483.28 L94.5 483.28 L103.5 474.28 L94.5 465.28 L0 465.28 L9 474.28 L0 483.28 Z" class="st2"/>
			</g>
			<path d="M0 483.28 L94.5 483.28 L103.5 474.28 L94.5 465.28 L0 465.28 L9 474.28 L0 483.28 Z" class="st3"/>
		</g>
		<g id="shape10-73" v:mID="10" v:groupContext="shape" transform="translate(711.309,131.307) rotate(90)">
			<title>Chevron.10</title>
			<v:userDefs>
				<v:ud v:nameU="visVersion" v:prompt="" v:val="VT0(15):26"/>
			</v:userDefs>
			<g id="shadow10-74" v:groupContext="shadow" v:shadowOffsetX="0.345598" v:shadowOffsetY="-1.97279" v:shadowType="1"
					transform="matrix(1,0,0,1,1.97279,-0.345598)" class="st1">
				<path d="M0 483.28 L197.53 483.28 L220.5 438.28 L197.53 393.28 L0 393.28 L22.97 438.28 L0 483.28 Z" class="st2"/>
			</g>
			<path d="M0 483.28 L197.53 483.28 L220.5 438.28 L197.53 393.28 L0 393.28 L22.97 438.28 L0 483.28 Z" class="st11"/>
		</g>
		<g id="shape2-78" v:mID="2" v:groupContext="shape" transform="translate(21.0294,-149.473)">
			<title>Rectangle</title>
			<desc>Original File</desc>
			<v:userDefs>
				<v:ud v:nameU="visVersion" v:val="VT0(15):26"/>
			</v:userDefs>
			<v:textBlock v:margins="rect(4,4,4,4)"/>
			<v:textRect cx="36" cy="393.28" width="72" height="180"/>
			<g id="shadow2-79" v:groupContext="shadow" v:shadowOffsetX="0.345598" v:shadowOffsetY="-1.97279" v:shadowType="1"
					transform="matrix(1,0,0,1,0.345598,1.97279)" class="st1">
				<rect x="0" y="303.28" width="72" height="180" class="st2"/>
			</g>
			<rect x="0" y="303.28" width="72" height="180" class="st12"/>
			<text x="11.92" y="396.28" class="st13" v:langID="1033"><v:paragraph v:horizAlign="1"/><v:tabList/>Original File</text>		</g>
		<g id="shape3-84" v:mID="3" v:groupContext="shape" transform="translate(237.029,-293.473)">
			<title>Rectangle.3</title>
			<desc>Encrypted Block #1</desc>
			<v:userDefs>
				<v:ud v:nameU="visVersion" v:val="VT0(15):26"/>
			</v:userDefs>
			<v:textBlock v:margins="rect(4,4,4,4)"/>
			<v:textRect cx="36" cy="465.28" width="72" height="36"/>
			<g id="shadow3-85" v:groupContext="shadow" v:shadowOffsetX="0.345598" v:shadowOffsetY="-1.97279" v:shadowType="1"
					transform="matrix(1,0,0,1,0.345598,1.97279)" class="st1">
				<rect x="0" y="447.28" width="72" height="36" class="st2"/>
			</g>
			<rect x="0" y="447.28" width="72" height="36" class="st14"/>
			<text x="15.39" y="462.28" class="st13" v:langID="1033"><v:paragraph v:horizAlign="1"/><v:tabList/>Encrypted<v:lf/><tspan
						x="18.95" dy="1.2em" class="st6">Block #1</tspan></text>		</g>
		<g id="shape8-91" v:mID="8" v:groupContext="shape" transform="translate(84.0294,-221.473)">
			<title>Chevron</title>
			<desc>Split and Encrypt (“Chunking”)</desc>
			<v:userDefs>
				<v:ud v:nameU="visVersion" v:prompt="" v:val="VT0(15):26"/>
			</v:userDefs>
			<v:textBlock v:margins="rect(4,4,4,4)"/>
			<v:textRect cx="74.25" cy="460.78" width="148.5" height="45"/>
			<g id="shadow8-92" v:groupContext="shadow" v:shadowOffsetX="0.345598" v:shadowOffsetY="-1.97279" v:shadowType="1"
					transform="matrix(1,0,0,1,0.345598,1.97279)" class="st1">
				<path d="M0 483.28 L126 483.28 L148.5 460.78 L126 438.28 L0 438.28 L22.5 460.78 L0 483.28 Z" class="st2"/>
			</g>
			<path d="M0 483.28 L126 483.28 L148.5 460.78 L126 438.28 L0 438.28 L22.5 460.78 L0 483.28 Z" class="st15"/>
			<text x="39.96" y="457.78" class="st13" v:langID="1033"><v:paragraph v:horizAlign="1"/><v:tabList/>Split and Encrypt<v:lf/><tspan
						x="48.09" dy="1.2em" class="st6">(“Chunking”)</tspan></text>		</g>
		<g id="shape11-98" v:mID="11" v:groupContext="shape" transform="translate(228.029,-89.4728)">
			<title>Ellipse</title>
			<desc>Hash last 32 bytes of each encrypted block, XOR together</desc>
			<v:userDefs>
				<v:ud v:nameU="visVersion" v:val="VT0(15):26"/>
			</v:userDefs>
			<v:textBlock v:margins="rect(4,4,4,4)"/>
			<v:textRect cx="45" cy="462.28" width="78.75" height="36.75"/>
			<g id="shadow11-99" v:groupContext="shadow" v:shadowOffsetX="0.345598" v:shadowOffsetY="-1.97279" v:shadowType="1"
					transform="matrix(1,0,0,1,0.345598,1.97279)" class="st1">
				<path d="M0 462.28 A45 21 0 0 1 90 462.28 A45 21 0 1 1 0 462.28 Z" class="st2"/>
			</g>
			<path d="M0 462.28 A45 21 0 0 1 90 462.28 A45 21 0 1 1 0 462.28 Z" class="st16"/>
			<text x="13.33" y="456.88" class="st17" v:langID="1033"><v:paragraph v:horizAlign="1"/><v:tabList/>Hash last 32 bytes of each <tspan
						x="18.85" dy="1.2em" class="st6">encrypted block, XOR </tspan><tspan x="34.39" dy="1.2em" class="st6">together</tspan></text>		</g>
		<g id="shape13-106" v:mID="13" v:groupContext="shape" transform="translate(102.029,-86.4728)">
			<title>Ellipse.13</title>
			<desc>Generate symmetric file encryption key (Kf)</desc>
			<v:userDefs>
				<v:ud v:nameU="visVersion" v:val="VT0(15):26"/>
			</v:userDefs>
			<v:textBlock v:margins="rect(4,4,4,4)"/>
			<v:textRect cx="36" cy="459.28" width="63" height="42"/>
			<g id="shadow13-107" v:groupContext="shadow" v:shadowOffsetX="0.345598" v:shadowOffsetY="-1.97279" v:shadowType="1"
					transform="matrix(1,0,0,1,0.345598,1.97279)" class="st1">
				<path d="M0 459.28 A36 24 0 0 1 72 459.28 A36 24 0 1 1 0 459.28 Z" class="st2"/>
			</g>
			<path d="M0 459.28 A36 24 0 0 1 72 459.28 A36 24 0 1 1 0 459.28 Z" class="st18"/>
			<text x="11.06" y="451.48" class="st17" v:langID="1033"><v:paragraph v:horizAlign="1"/><v:tabList/>Generate symmetric <tspan
						x="13.48" dy="1.2em" class="st6">file encryption key </tspan><tspan x="29.38" dy="1.08em" class="st19">(K</tspan><tspan
						dy="-0.284em" class="st20" v:baseFontSize="10">f</tspan><tspan dy="0.185em" class="st19">)</tspan></text>		</g>
		<g id="shape15-116" v:mID="15" v:groupContext="shape" transform="translate(183.029,-92.4728)">
			<title>Circle</title>
			<desc>XOR</desc>
			<v:userDefs>
				<v:ud v:nameU="visVersion" v:val="VT0(15):26"/>
			</v:userDefs>
			<v:textBlock v:margins="rect(4,4,4,4)"/>
			<v:textRect cx="18" cy="465.28" width="31.5" height="27"/>
			<g id="shadow15-117" v:groupContext="shadow" v:shadowOffsetX="0.345598" v:shadowOffsetY="-1.97279" v:shadowType="1"
					transform="matrix(1,0,0,1,0.345598,1.97279)" class="st1">
				<path d="M0 465.28 A18 18 0 0 1 36 465.28 A18 18 0 1 1 0 465.28 Z" class="st2"/>
			</g>
			<path d="M0 465.28 A18 18 0 0 1 36 465.28 A18 18 0 1 1 0 465.28 Z" class="st16"/>
			<text x="9.38" y="468.28" class="st13" v:langID="1033"><v:paragraph v:horizAlign="1"/><v:tabList/>XOR</text>		</g>
		<g id="shape18-122" v:mID="18" v:groupContext="shape" transform="translate(165.029,-29.4728)">
			<title>Ellipse.18</title>
			<desc>Resulting ‘Unlock Key’ (Ku)</desc>
			<v:userDefs>
				<v:ud v:nameU="visVersion" v:val="VT0(15):26"/>
			</v:userDefs>
			<v:textBlock v:margins="rect(4,4,4,4)"/>
			<v:textRect cx="36" cy="459.28" width="63" height="42"/>
			<g id="shadow18-123" v:groupContext="shadow" v:shadowOffsetX="0.345598" v:shadowOffsetY="-1.97279" v:shadowType="1"
					transform="matrix(1,0,0,1,0.345598,1.97279)" class="st1">
				<path d="M0 459.28 A36 24 0 0 1 72 459.28 A36 24 0 1 1 0 459.28 Z" class="st2"/>
			</g>
			<path d="M0 459.28 A36 24 0 0 1 72 459.28 A36 24 0 1 1 0 459.28 Z" class="st18"/>
			<text x="9.09" y="455.08" class="st17" v:langID="1033"><v:paragraph v:horizAlign="1"/><v:tabList/>Resulting ‘Unlock Key’ <tspan
						x="28.66" dy="1.08em" class="st19">(K</tspan><tspan dy="-0.284em" class="st20" v:baseFontSize="10">u</tspan><tspan
						dy="0.185em" class="st19">)</tspan></text>		</g>
		<g id="shape21-131" v:mID="21" v:groupContext="shape" transform="translate(417.029,-293.473)">
			<title>Rectangle.21</title>
			<desc>Encrypted Block #1</desc>
			<v:userDefs>
				<v:ud v:nameU="visVersion" v:val="VT0(15):26"/>
			</v:userDefs>
			<v:textBlock v:margins="rect(4,4,4,4)"/>
			<v:textRect cx="36" cy="465.28" width="72" height="36"/>
			<g id="shadow21-132" v:groupContext="shadow" v:shadowOffsetX="0.345598" v:shadowOffsetY="-1.97279" v:shadowType="1"
					transform="matrix(1,0,0,1,0.345598,1.97279)" class="st1">
				<rect x="0" y="447.28" width="72" height="36" class="st2"/>
			</g>
			<rect x="0" y="447.28" width="72" height="36" class="st14"/>
			<text x="15.39" y="462.28" class="st13" v:langID="1033"><v:paragraph v:horizAlign="1"/><v:tabList/>Encrypted<v:lf/><tspan
						x="18.95" dy="1.2em" class="st6">Block #1</tspan></text>		</g>
		<g id="shape22-138" v:mID="22" v:groupContext="shape" transform="translate(417.029,-221.473)">
			<title>Rectangle.22</title>
			<desc>Encrypted Block #2</desc>
			<v:userDefs>
				<v:ud v:nameU="visVersion" v:val="VT0(15):26"/>
			</v:userDefs>
			<v:textBlock v:margins="rect(4,4,4,4)"/>
			<v:textRect cx="36" cy="447.28" width="72" height="72"/>
			<g id="shadow22-139" v:groupContext="shadow" v:shadowOffsetX="0.345598" v:shadowOffsetY="-1.97279" v:shadowType="1"
					transform="matrix(1,0,0,1,0.345598,1.97279)" class="st1">
				<rect x="0" y="411.28" width="72" height="72" class="st2"/>
			</g>
			<rect x="0" y="411.28" width="72" height="72" class="st14"/>
			<text x="15.39" y="444.28" class="st13" v:langID="1033"><v:paragraph v:horizAlign="1"/><v:tabList/>Encrypted<v:lf/><tspan
						x="18.95" dy="1.2em" class="st6">Block #2</tspan></text>		</g>
		<g id="shape23-145" v:mID="23" v:groupContext="shape" transform="translate(417.029,-194.473)">
			<title>Rectangle.23</title>
			<desc>Encrypted Block #3</desc>
			<v:userDefs>
				<v:ud v:nameU="visVersion" v:val="VT0(15):26"/>
			</v:userDefs>
			<v:textBlock v:margins="rect(4,4,4,4)"/>
			<v:textRect cx="36" cy="469.78" width="72" height="27"/>
			<g id="shadow23-146" v:groupContext="shadow" v:shadowOffsetX="0.345598" v:shadowOffsetY="-1.97279" v:shadowType="1"
					transform="matrix(1,0,0,1,0.345598,1.97279)" class="st1">
				<rect x="0" y="456.28" width="72" height="27" class="st2"/>
			</g>
			<rect x="0" y="456.28" width="72" height="27" class="st14"/>
			<text x="15.39" y="466.78" class="st13" v:langID="1033"><v:paragraph v:horizAlign="1"/><v:tabList/>Encrypted<v:lf/><tspan
						x="18.95" dy="1.2em" class="st6">Block #3</tspan></text>		</g>
		<g id="shape24-152" v:mID="24" v:groupContext="shape" transform="translate(417.029,-149.473)">
			<title>Rectangle.24</title>
			<desc>Encrypted Block #4</desc>
			<v:userDefs>
				<v:ud v:nameU="visVersion" v:val="VT0(15):26"/>
			</v:userDefs>
			<v:textBlock v:margins="rect(4,4,4,4)"/>
			<v:textRect cx="36" cy="460.78" width="72" height="45"/>
			<g id="shadow24-153" v:groupContext="shadow" v:shadowOffsetX="0.345598" v:shadowOffsetY="-1.97279" v:shadowType="1"
					transform="matrix(1,0,0,1,0.345598,1.97279)" class="st1">
				<rect x="0" y="438.28" width="72" height="45" class="st2"/>
			</g>
			<rect x="0" y="438.28" width="72" height="45" class="st14"/>
			<text x="15.39" y="457.78" class="st13" v:langID="1033"><v:paragraph v:horizAlign="1"/><v:tabList/>Encrypted<v:lf/><tspan
						x="18.95" dy="1.2em" class="st6">Block #4</tspan></text>		</g>
		<g id="shape9-159" v:mID="9" v:groupContext="shape" transform="translate(417.029,-90.9728)">
			<title>Sheet.9</title>
			<desc>Manifest -KU -Ordered list of block SHA512&#39;s -Original file n...</desc>
			<v:textBlock v:margins="rect(4,4,4,4)"/>
			<v:textRect cx="36" cy="454.03" width="72" height="58.5"/>
			<g id="shadow9-160" v:groupContext="shadow" v:shadowOffsetX="0.345598" v:shadowOffsetY="-1.97279" v:shadowType="1"
					transform="matrix(1,0,0,1,0.345598,1.97279)" class="st1">
				<rect x="0" y="424.78" width="72" height="58.5" class="st2"/>
			</g>
			<rect x="0" y="424.78" width="72" height="58.5" class="st21"/>
			<text x="21.53" y="437.23" class="st8" v:langID="1033"><v:paragraph v:horizAlign="1"/><v:tabList/>Manifest<v:newlineChar/><v:paragraph/><v:lf/><tspan
						x="4" dy="2.5em" class="st22">-</tspan><tspan class="st22">K</tspan><tspan dy="-0.284em" class="st23"
						v:baseFontSize="6">U<v:newlineChar/></tspan><tspan x="4" dy="1.385em" class="st22">-</tspan><tspan
						class="st22">Ordered list of block </tspan><tspan x="4" dy="1.2em" class="st22">SHA512&#39;s<v:newlineChar/></tspan><tspan
						x="4" dy="1.5em" class="st22">-</tspan><tspan class="st22">Original file name</tspan></text>		</g>
		<g id="shape27-173" v:mID="27" v:groupContext="shape" transform="translate(408.029,-351.973)">
			<title>Ellipse.27</title>
			<desc>Hash first 32 bytes of each encrypted block, XOR together</desc>
			<v:userDefs>
				<v:ud v:nameU="visVersion" v:val="VT0(15):26"/>
			</v:userDefs>
			<v:textBlock v:margins="rect(4,4,4,4)"/>
			<v:textRect cx="45" cy="462.28" width="78.75" height="36.75"/>
			<g id="shadow27-174" v:groupContext="shadow" v:shadowOffsetX="0.345598" v:shadowOffsetY="-1.97279" v:shadowType="1"
					transform="matrix(1,0,0,1,0.345598,1.97279)" class="st1">
				<path d="M0 462.28 A45 21 0 0 1 90 462.28 A45 21 0 1 1 0 462.28 Z" class="st2"/>
			</g>
			<path d="M0 462.28 A45 21 0 0 1 90 462.28 A45 21 0 1 1 0 462.28 Z" class="st16"/>
			<text x="12.81" y="456.88" class="st17" v:langID="1033"><v:paragraph v:horizAlign="1"/><v:tabList/>Hash first 32 bytes of each <tspan
						x="18.85" dy="1.2em" class="st6">encrypted block, XOR </tspan><tspan x="34.39" dy="1.2em" class="st6">together</tspan></text>		</g>
		<g id="shape28-181" v:mID="28" v:groupContext="shape" transform="translate(489.029,-131.473)">
			<title>Chevron.28</title>
			<desc>Encrypt</desc>
			<v:userDefs>
				<v:ud v:nameU="visVersion" v:prompt="" v:val="VT0(15):26"/>
			</v:userDefs>
			<v:textBlock v:margins="rect(4,4,4,4)"/>
			<v:textRect cx="72" cy="474.28" width="144" height="18"/>
			<g id="shadow28-182" v:groupContext="shadow" v:shadowOffsetX="0.345598" v:shadowOffsetY="-1.97279" v:shadowType="1"
					transform="matrix(1,0,0,1,0.345598,1.97279)" class="st1">
				<path d="M0 483.28 L130.5 483.28 L144 474.28 L130.5 465.28 L0 465.28 L13.5 474.28 L0 483.28 Z" class="st2"/>
			</g>
			<path d="M0 483.28 L130.5 483.28 L144 474.28 L130.5 465.28 L0 465.28 L13.5 474.28 L0 483.28 Z" class="st15"/>
			<text x="56.51" y="477.28" class="st13" v:langID="1033"><v:paragraph v:horizAlign="1"/><v:tabList/>Encrypt</text>		</g>
		<g id="shape31-187" v:mID="31" v:groupContext="shape" transform="translate(543.029,-354.973)">
			<title>Circle.31</title>
			<desc>XOR</desc>
			<v:userDefs>
				<v:ud v:nameU="visVersion" v:val="VT0(15):26"/>
			</v:userDefs>
			<v:textBlock v:margins="rect(4,4,4,4)"/>
			<v:textRect cx="18" cy="465.28" width="31.5" height="27"/>
			<g id="shadow31-188" v:groupContext="shadow" v:shadowOffsetX="0.345598" v:shadowOffsetY="-1.97279" v:shadowType="1"
					transform="matrix(1,0,0,1,0.345598,1.97279)" class="st1">
				<path d="M0 465.28 A18 18 0 0 1 36 465.28 A18 18 0 1 1 0 465.28 Z" class="st2"/>
			</g>
			<path d="M0 465.28 A18 18 0 0 1 36 465.28 A18 18 0 1 1 0 465.28 Z" class="st16"/>
			<text x="9.38" y="468.28" class="st13" v:langID="1033"><v:paragraph v:horizAlign="1"/><v:tabList/>XOR</text>		</g>
		<g id="shape35-193" v:mID="35" v:groupContext="shape" transform="translate(525.029,-407.473)">
			<title>Ellipse.35</title>
			<desc>Progressive Network Entropy + Timestamp (En)</desc>
			<v:userDefs>
				<v:ud v:nameU="visVersion" v:val="VT0(15):26"/>
			</v:userDefs>
			<v:textBlock v:margins="rect(4,4,4,4)"/>
			<v:textRect cx="36" cy="459.28" width="63" height="42"/>
			<g id="shadow35-194" v:groupContext="shadow" v:shadowOffsetX="0.345598" v:shadowOffsetY="-1.97279" v:shadowType="1"
					transform="matrix(1,0,0,1,0.345598,1.97279)" class="st1">
				<path d="M0 459.28 A36 24 0 0 1 72 459.28 A36 24 0 1 1 0 459.28 Z" class="st2"/>
			</g>
			<path d="M0 459.28 A36 24 0 0 1 72 459.28 A36 24 0 1 1 0 459.28 Z" class="st18"/>
			<text x="10.74" y="451.48" class="st17" v:langID="1033"><v:paragraph v:horizAlign="1"/><v:tabList/>Progressive Network <tspan
						x="9.91" dy="1.2em" class="st6">Entropy + Timestamp </tspan><tspan x="28.82" dy="1.08em" class="st19">(E</tspan><tspan
						dy="-0.284em" class="st20" v:baseFontSize="10">n</tspan><tspan dy="0.185em" class="st19">)</tspan></text>		</g>
		<g id="shape38-203" v:mID="38" v:groupContext="shape" transform="translate(633.029,-293.473)">
			<title>Rectangle.38</title>
			<desc>Encrypted Block #1</desc>
			<v:userDefs>
				<v:ud v:nameU="visVersion" v:val="VT0(15):26"/>
			</v:userDefs>
			<v:textBlock v:margins="rect(4,4,4,4)"/>
			<v:textRect cx="36" cy="465.28" width="72" height="36"/>
			<g id="shadow38-204" v:groupContext="shadow" v:shadowOffsetX="0.345598" v:shadowOffsetY="-1.97279" v:shadowType="1"
					transform="matrix(1,0,0,1,0.345598,1.97279)" class="st1">
				<rect x="0" y="447.28" width="72" height="36" class="st2"/>
			</g>
			<rect x="0" y="447.28" width="72" height="36" class="st14"/>
			<text x="15.39" y="462.28" class="st13" v:langID="1033"><v:paragraph v:horizAlign="1"/><v:tabList/>Encrypted<v:lf/><tspan
						x="18.95" dy="1.2em" class="st6">Block #1</tspan></text>		</g>
		<g id="shape39-210" v:mID="39" v:groupContext="shape" transform="translate(633.029,-221.473)">
			<title>Rectangle.39</title>
			<desc>Encrypted Block #2</desc>
			<v:userDefs>
				<v:ud v:nameU="visVersion" v:val="VT0(15):26"/>
			</v:userDefs>
			<v:textBlock v:margins="rect(4,4,4,4)"/>
			<v:textRect cx="36" cy="447.28" width="72" height="72"/>
			<g id="shadow39-211" v:groupContext="shadow" v:shadowOffsetX="0.345598" v:shadowOffsetY="-1.97279" v:shadowType="1"
					transform="matrix(1,0,0,1,0.345598,1.97279)" class="st1">
				<rect x="0" y="411.28" width="72" height="72" class="st2"/>
			</g>
			<rect x="0" y="411.28" width="72" height="72" class="st14"/>
			<text x="15.39" y="444.28" class="st13" v:langID="1033"><v:paragraph v:horizAlign="1"/><v:tabList/>Encrypted<v:lf/><tspan
						x="18.95" dy="1.2em" class="st6">Block #2</tspan></text>		</g>
		<g id="shape40-217" v:mID="40" v:groupContext="shape" transform="translate(633.029,-194.473)">
			<title>Rectangle.40</title>
			<desc>Encrypted Block #3</desc>
			<v:userDefs>
				<v:ud v:nameU="visVersion" v:val="VT0(15):26"/>
			</v:userDefs>
			<v:textBlock v:margins="rect(4,4,4,4)"/>
			<v:textRect cx="36" cy="469.78" width="72" height="27"/>
			<g id="shadow40-218" v:groupContext="shadow" v:shadowOffsetX="0.345598" v:shadowOffsetY="-1.97279" v:shadowType="1"
					transform="matrix(1,0,0,1,0.345598,1.97279)" class="st1">
				<rect x="0" y="456.28" width="72" height="27" class="st2"/>
			</g>
			<rect x="0" y="456.28" width="72" height="27" class="st14"/>
			<text x="15.39" y="466.78" class="st13" v:langID="1033"><v:paragraph v:horizAlign="1"/><v:tabList/>Encrypted<v:lf/><tspan
						x="18.95" dy="1.2em" class="st6">Block #3</tspan></text>		</g>
		<g id="shape41-224" v:mID="41" v:groupContext="shape" transform="translate(633.029,-149.473)">
			<title>Rectangle.41</title>
			<desc>Encrypted Block #4</desc>
			<v:userDefs>
				<v:ud v:nameU="visVersion" v:val="VT0(15):26"/>
			</v:userDefs>
			<v:textBlock v:margins="rect(4,4,4,4)"/>
			<v:textRect cx="36" cy="460.78" width="72" height="45"/>
			<g id="shadow41-225" v:groupContext="shadow" v:shadowOffsetX="0.345598" v:shadowOffsetY="-1.97279" v:shadowType="1"
					transform="matrix(1,0,0,1,0.345598,1.97279)" class="st1">
				<rect x="0" y="438.28" width="72" height="45" class="st2"/>
			</g>
			<rect x="0" y="438.28" width="72" height="45" class="st14"/>
			<text x="15.39" y="457.78" class="st13" v:langID="1033"><v:paragraph v:horizAlign="1"/><v:tabList/>Encrypted<v:lf/><tspan
						x="18.95" dy="1.2em" class="st6">Block #4</tspan></text>		</g>
		<g id="shape34-231" v:mID="34" v:groupContext="shape" transform="translate(633.029,-131.473)">
			<title>Sheet.34</title>
			<desc>Encrypted Manifest</desc>
			<v:textBlock v:margins="rect(4,4,4,4)"/>
			<v:textRect cx="36" cy="474.28" width="72" height="18"/>
			<g id="shadow34-232" v:groupContext="shadow" v:shadowOffsetX="0.345598" v:shadowOffsetY="-1.97279" v:shadowType="1"
					transform="matrix(1,0,0,1,0.345598,1.97279)" class="st1">
				<rect x="0" y="465.28" width="72" height="18" class="st2"/>
			</g>
			<rect x="0" y="465.28" width="72" height="18" class="st24"/>
			<text x="4.14" y="476.68" class="st25" v:langID="1033"><v:paragraph v:horizAlign="1"/><v:tabList/>Encrypted Manifest</text>		</g>
		<g id="shape42-237" v:mID="42" v:groupContext="shape" transform="translate(633.029,-342.973)">
			<title>Rectangle.42</title>
			<desc>Resource Record -Temporal File ID -Timestamp of En -Unordered...</desc>
			<v:userDefs>
				<v:ud v:nameU="visVersion" v:val="VT0(15):26"/>
			</v:userDefs>
			<v:textBlock v:margins="rect(4,4,4,4)"/>
			<v:textRect cx="36" cy="454.03" width="72" height="58.5"/>
			<g id="shadow42-238" v:groupContext="shadow" v:shadowOffsetX="0.345598" v:shadowOffsetY="-1.97279" v:shadowType="1"
					transform="matrix(1,0,0,1,0.345598,1.97279)" class="st1">
				<rect x="0" y="424.78" width="72" height="58.5" class="st2"/>
			</g>
			<rect x="0" y="424.78" width="72" height="58.5" class="st26"/>
			<text x="5.2" y="438.73" class="st27" v:langID="1033"><v:paragraph v:horizAlign="1"/><v:tabList/>Resource Record<v:newlineChar/><v:paragraph/><v:lf/><tspan
						x="4" dy="2.55em" class="st28">-</tspan><tspan class="st28">Temporal File ID<v:newlineChar/></tspan><tspan
						x="4" dy="1.2em" class="st28">-</tspan><tspan class="st28">Timestamp of E</tspan><tspan dy="-0.284em"
						class="st29" v:baseFontSize="6">n<v:newlineChar/></tspan><tspan x="4" dy="1.385em" class="st28">-</tspan><tspan
						class="st28">Unordered list of block </tspan><tspan x="4" dy="1.2em" class="st28">SHA512&#39;s</tspan></text>		</g>
		<g id="shape46-251" v:mID="46" v:groupContext="shape" transform="translate(633.029,-122.473)">
			<title>Sheet.46</title>
			<desc>A Resource Reccord is required to understand what content is ...</desc>
			<v:textBlock v:margins="rect(4,4,4,4)" v:verticalAlign="0"/>
			<v:textRect cx="141.75" cy="343.78" width="121.5" height="279"/>
			<g id="shadow46-252" v:groupContext="shadow" v:shadowOffsetX="0.345598" v:shadowOffsetY="-1.97279" v:shadowType="1"
					transform="matrix(1,0,0,1,0.345598,1.97279)" class="st1">
				<rect x="0" y="204.28" width="202.5" height="279" class="st4"/>
				<text x="88.65" y="215.48" class="st5" v:langID="1033"><v:paragraph v:horizAlign="2"/><v:tabList/>A Resource Reccord is required to <tspan
							x="108.9" dy="1.2em" class="st6">understand what content is<v:newlineChar/><v:newlineChar/></tspan><tspan
							x="102.1" dy="2.4em" class="st6">Blocks are traded by tuples of </tspan><tspan x="89.82" dy="1.2em"
							class="st6">TFID+SHA512, which change over </tspan><tspan x="101.76" dy="1.2em" class="st6">time with re</tspan>-XOR’ing the TFID <tspan
							x="112.42" dy="1.2em" class="st6">from changing progressive </tspan><tspan x="143.77" dy="1.2em"
							class="st6">network entropy<v:newlineChar/><v:newlineChar/></tspan><tspan x="92.39" dy="2.4em"
							class="st6">Clients have plausible deniability </tspan><tspan x="86.84" dy="1.2em" class="st6">of the content they hold if they do </tspan><tspan
							x="85.96" dy="1.2em" class="st6">not store resource records or have </tspan><tspan x="105.77"
							dy="1.2em" class="st6">repudiation for storing them </tspan><tspan x="110.04" dy="1.2em" class="st6">through encryption.  This is </tspan><tspan
							x="106.28" dy="1.2em" class="st6">because they don’t have the </tspan><tspan x="93.74" dy="1.2em"
							class="st6">Timestamp, which is required to </tspan><tspan x="113.8" dy="1.2em" class="st6">un</tspan>-XOR the TFID to get K<tspan
							dy="-0.284em" class="st30" v:baseFontSize="8">m<v:newlineChar/><v:newlineChar/></tspan><tspan x="96.17"
							dy="2.585em" class="st6">Passive traders may never have </tspan><tspan x="102.84" dy="1.2em"
							class="st6">resource records, and so only </tspan><tspan x="120.61" dy="1.2em" class="st6">trade TFID</tspan>-keyed blocks</text>			</g>
			<rect x="0" y="204.28" width="202.5" height="279" class="st7"/>
			<text x="88.65" y="215.48" class="st8" v:langID="1033"><v:paragraph v:horizAlign="2"/><v:tabList/>A Resource Reccord is required to <tspan
						x="108.9" dy="1.2em" class="st6">understand what content is<v:newlineChar/><v:newlineChar/></tspan><tspan
						x="102.1" dy="2.4em" class="st6">Blocks are traded by tuples of </tspan><tspan x="89.82" dy="1.2em"
						class="st6">TFID+SHA512, which change over </tspan><tspan x="101.76" dy="1.2em" class="st6">time with re</tspan>-XOR’ing the TFID <tspan
						x="112.42" dy="1.2em" class="st6">from changing progressive </tspan><tspan x="143.77" dy="1.2em"
						class="st6">network entropy<v:newlineChar/><v:newlineChar/></tspan><tspan x="92.39" dy="2.4em" class="st6">Clients have plausible deniability </tspan><tspan
						x="86.84" dy="1.2em" class="st6">of the content they hold if they do </tspan><tspan x="85.96" dy="1.2em"
						class="st6">not store resource records or have </tspan><tspan x="105.77" dy="1.2em" class="st6">repudiation for storing them </tspan><tspan
						x="110.04" dy="1.2em" class="st6">through encryption.  This is </tspan><tspan x="106.28" dy="1.2em"
						class="st6">because they don’t have the </tspan><tspan x="93.74" dy="1.2em" class="st6">Timestamp, which is required to </tspan><tspan
						x="113.8" dy="1.2em" class="st6">un</tspan>-XOR the TFID to get K<tspan dy="-0.284em" class="st30"
						v:baseFontSize="8">m<v:newlineChar/><v:newlineChar/></tspan><tspan x="96.17" dy="2.585em" class="st6">Passive traders may never have </tspan><tspan
						x="102.84" dy="1.2em" class="st6">resource records, and so only </tspan><tspan x="120.61" dy="1.2em"
						class="st6">trade TFID</tspan>-keyed blocks</text>		</g>
		<g id="shape48-295" v:mID="48" v:groupContext="shape" transform="translate(408.029,-351.973)">
			<title>Sheet.48</title>
			<desc>Process ensures network participants must calculate EN and ha...</desc>
			<v:textBlock v:margins="rect(4,4,4,4)" v:verticalAlign="0"/>
			<v:textRect cx="112.5" cy="431.53" width="225" height="103.5"/>
			<g id="shadow48-296" v:groupContext="shadow" v:shadowOffsetX="0.345598" v:shadowOffsetY="-1.97279" v:shadowType="1"
					transform="matrix(1,0,0,1,0.345598,1.97279)" class="st1">
				<rect x="0" y="379.78" width="225" height="103.5" class="st4"/>
				<text x="4" y="390.98" class="st5" v:langID="1033"><v:paragraph/><v:tabList/>Process ensures network<v:lf/><tspan
							x="4" dy="1.2em" class="st6">participants must calculate E</tspan><tspan dy="-0.284em" class="st30"
							v:baseFontSize="8">N<v:lf/></tspan><tspan x="4" dy="1.385em" class="st6">and have a resource record<v:lf/></tspan><tspan
							x="4" dy="1.2em" class="st6">to know base timestamp<v:lf/></tspan><tspan x="4" dy="1.2em" class="st6">to understand the changing<v:lf/></tspan><tspan
							x="4" dy="1.2em" class="st6">value of TFID’s over time</tspan></text>			</g>
			<rect x="0" y="379.78" width="225" height="103.5" class="st7"/>
			<text x="4" y="390.98" class="st8" v:langID="1033"><v:paragraph/><v:tabList/>Process ensures network<v:lf/><tspan x="4"
						dy="1.2em" class="st6">participants must calculate E</tspan><tspan dy="-0.284em" class="st30"
						v:baseFontSize="8">N<v:lf/></tspan><tspan x="4" dy="1.385em" class="st6">and have a resource record<v:lf/></tspan><tspan
						x="4" dy="1.2em" class="st6">to know base timestamp<v:lf/></tspan><tspan x="4" dy="1.2em" class="st6">to understand the changing<v:lf/></tspan><tspan
						x="4" dy="1.2em" class="st6">value of TFID’s over time</tspan></text>		</g>
		<g id="shape51-315" v:mID="51" v:groupContext="shape" v:layerMember="0" transform="translate(309.029,-320.473)">
			<title>Dynamic connector</title>
			<path d="M0 474.28 L108 474.28" class="st31"/>
		</g>
		<g id="shape52-318" v:mID="52" v:groupContext="shape" v:layerMember="0" transform="translate(309.029,-284.098)">
			<title>Dynamic connector.52</title>
			<path d="M0 474.28 L108 474.28" class="st31"/>
		</g>
		<g id="shape53-321" v:mID="53" v:groupContext="shape" v:layerMember="0" transform="translate(309.029,-212.473)">
			<title>Dynamic connector.53</title>
			<path d="M0 474.28 L108 474.28" class="st31"/>
		</g>
		<g id="shape54-324" v:mID="54" v:groupContext="shape" v:layerMember="0" transform="translate(309.029,-185.473)">
			<title>Dynamic connector.54</title>
			<path d="M0 474.28 L108 474.28" class="st31"/>
		</g>
		<g id="shape55-327" v:mID="55" v:groupContext="shape" v:layerMember="0" transform="translate(309.029,-140.098)">
			<title>Dynamic connector.55</title>
			<path d="M0 474.28 L108 474.28" class="st31"/>
		</g>
		<g id="shape20-330" v:mID="20" v:groupContext="shape" transform="translate(525.76,-157.052) rotate(30)">
			<title>Chevron.20</title>
			<desc>Metadata</desc>
			<v:userDefs>
				<v:ud v:nameU="visVersion" v:prompt="" v:val="VT0(15):26"/>
			</v:userDefs>
			<v:textBlock v:margins="rect(4,4,4,4)"/>
			<v:textRect cx="75.4365" cy="478.78" width="150.88" height="9"/>
			<g id="shadow20-331" v:groupContext="shadow" v:shadowOffsetX="0.345598" v:shadowOffsetY="-1.97279" v:shadowType="1"
					transform="matrix(1,0,0,1,1.28569,1.53569)" class="st1">
				<path d="M0 483.28 L142.87 483.28 L150.87 478.78 L142.87 474.28 L0 474.28 L8 478.78 L0 483.28 Z" class="st2"/>
			</g>
			<path d="M0 483.28 L142.87 483.28 L150.87 478.78 L142.87 474.28 L0 474.28 L8 478.78 L0 483.28 Z" class="st32"/>
			<text x="63.48" y="480.58" class="st9" v:langID="1033"><v:paragraph v:horizAlign="1"/><v:tabList/>Metadata</text>		</g>
		<g id="shape4-336" v:mID="4" v:groupContext="shape" transform="translate(237.029,-221.473)">
			<title>Rectangle.4</title>
			<desc>Encrypted Block #2</desc>
			<v:userDefs>
				<v:ud v:nameU="visVersion" v:val="VT0(15):26"/>
			</v:userDefs>
			<v:textBlock v:margins="rect(4,4,4,4)"/>
			<v:textRect cx="36" cy="447.28" width="72" height="72"/>
			<g id="shadow4-337" v:groupContext="shadow" v:shadowOffsetX="0.345598" v:shadowOffsetY="-1.97279" v:shadowType="1"
					transform="matrix(1,0,0,1,0.345598,1.97279)" class="st1">
				<rect x="0" y="411.28" width="72" height="72" class="st2"/>
			</g>
			<rect x="0" y="411.28" width="72" height="72" class="st14"/>
			<text x="15.39" y="444.28" class="st13" v:langID="1033"><v:paragraph v:horizAlign="1"/><v:tabList/>Encrypted<v:lf/><tspan
						x="18.95" dy="1.2em" class="st6">Block #2</tspan></text>		</g>
		<g id="shape5-343" v:mID="5" v:groupContext="shape" transform="translate(237.029,-194.473)">
			<title>Rectangle.5</title>
			<desc>Encrypted Block #3</desc>
			<v:userDefs>
				<v:ud v:nameU="visVersion" v:val="VT0(15):26"/>
			</v:userDefs>
			<v:textBlock v:margins="rect(4,4,4,4)"/>
			<v:textRect cx="36" cy="469.78" width="72" height="27"/>
			<g id="shadow5-344" v:groupContext="shadow" v:shadowOffsetX="0.345598" v:shadowOffsetY="-1.97279" v:shadowType="1"
					transform="matrix(1,0,0,1,0.345598,1.97279)" class="st1">
				<rect x="0" y="456.28" width="72" height="27" class="st2"/>
			</g>
			<rect x="0" y="456.28" width="72" height="27" class="st14"/>
			<text x="15.39" y="466.78" class="st13" v:langID="1033"><v:paragraph v:horizAlign="1"/><v:tabList/>Encrypted<v:lf/><tspan
						x="18.95" dy="1.2em" class="st6">Block #3</tspan></text>		</g>
		<g id="shape6-350" v:mID="6" v:groupContext="shape" transform="translate(237.029,-149.473)">
			<title>Rectangle.6</title>
			<desc>Encrypted Block #4</desc>
			<v:userDefs>
				<v:ud v:nameU="visVersion" v:val="VT0(15):26"/>
			</v:userDefs>
			<v:textBlock v:margins="rect(4,4,4,4)"/>
			<v:textRect cx="36" cy="460.78" width="72" height="45"/>
			<g id="shadow6-351" v:groupContext="shadow" v:shadowOffsetX="0.345598" v:shadowOffsetY="-1.97279" v:shadowType="1"
					transform="matrix(1,0,0,1,0.345598,1.97279)" class="st1">
				<rect x="0" y="438.28" width="72" height="45" class="st2"/>
			</g>
			<rect x="0" y="438.28" width="72" height="45" class="st14"/>
			<text x="15.39" y="457.78" class="st13" v:langID="1033"><v:paragraph v:horizAlign="1"/><v:tabList/>Encrypted<v:lf/><tspan
						x="18.95" dy="1.2em" class="st6">Block #4</tspan></text>		</g>
		<g id="shape56-357" v:mID="56" v:groupContext="shape" v:layerMember="0" transform="translate(489.029,-320.473)">
			<title>Dynamic connector.56</title>
			<path d="M0 474.28 L142.87 474.28" class="st31"/>
		</g>
		<g id="shape57-360" v:mID="57" v:groupContext="shape" v:layerMember="0" transform="translate(489.029,-284.473)">
			<title>Dynamic connector.57</title>
			<path d="M0 474.28 L142.87 474.28" class="st31"/>
		</g>
		<g id="shape58-363" v:mID="58" v:groupContext="shape" v:layerMember="0" transform="translate(489.029,-212.473)">
			<title>Dynamic connector.58</title>
			<path d="M0 474.28 L142.87 474.28" class="st31"/>
		</g>
		<g id="shape59-366" v:mID="59" v:groupContext="shape" v:layerMember="0" transform="translate(489.029,-185.473)">
			<title>Dynamic connector.59</title>
			<path d="M0 474.28 L142.87 474.28" class="st31"/>
		</g>
		<g id="shape60-369" v:mID="60" v:groupContext="shape" v:layerMember="0" transform="translate(489.029,-141.223)">
			<title>Dynamic connector.60</title>
			<path d="M0 474.28 L142.87 474.28" class="st31"/>
		</g>
		<g id="shape32-372" v:mID="32" v:groupContext="shape" transform="translate(86.7494,270.807) rotate(-90)">
			<title>Chevron.32</title>
			<v:userDefs>
				<v:ud v:nameU="visVersion" v:prompt="" v:val="VT0(15):26"/>
			</v:userDefs>
			<g id="shadow32-373" v:groupContext="shadow" v:shadowOffsetX="0.345598" v:shadowOffsetY="-1.97279" v:shadowType="1"
					transform="matrix(1,0,0,1,-1.97279,0.345598)" class="st1">
				<path d="M0 483.28 L132.75 483.28 L142.5 474.28 L132.75 465.28 L0 465.28 L9.75 474.28 L0 483.28 Z" class="st2"/>
			</g>
			<path d="M0 483.28 L132.75 483.28 L142.5 474.28 L132.75 465.28 L0 465.28 L9.75 474.28 L0 483.28 Z" class="st3"/>
		</g>
		<g id="shape25-377" v:mID="25" v:groupContext="shape" transform="translate(525.029,-173.473)">
			<title>Ellipse.25</title>
			<desc>Generate symmetric manifest encryption key (Km)</desc>
			<v:userDefs>
				<v:ud v:nameU="visVersion" v:val="VT0(15):26"/>
			</v:userDefs>
			<v:textBlock v:margins="rect(4,4,4,4)"/>
			<v:textRect cx="36" cy="459.28" width="63" height="42"/>
			<g id="shadow25-378" v:groupContext="shadow" v:shadowOffsetX="0.345598" v:shadowOffsetY="-1.97279" v:shadowType="1"
					transform="matrix(1,0,0,1,0.345598,1.97279)" class="st1">
				<path d="M0 459.28 A36 24 0 0 1 72 459.28 A36 24 0 1 1 0 459.28 Z" class="st2"/>
			</g>
			<path d="M0 459.28 A36 24 0 0 1 72 459.28 A36 24 0 1 1 0 459.28 Z" class="st18"/>
			<text x="11.06" y="451.48" class="st17" v:langID="1033"><v:paragraph v:horizAlign="1"/><v:tabList/>Generate symmetric <tspan
						x="11.47" dy="1.2em" class="st6">manifest encryption </tspan><tspan x="22.88" dy="1.8em" class="st6">key </tspan><tspan
						class="st19">(K</tspan><tspan dy="-0.284em" class="st20" v:baseFontSize="10">m</tspan><tspan dy="0.185em"
						class="st19">)</tspan></text>		</g>
	</g>
</svg>
